<svg width="75" height="117" viewBox="0 0 75 117" fill="none" xmlns="http://www.w3.org/2000/svg">
<path d="M68.6136 116.248H6.44781C3.12873 116.248 0.438416 113.542 0.438416 110.204V6.04357C0.438416 2.70561 3.12873 0 6.44781 0H68.6136C69.3352 0.0207327 70.7267 0.15549 72.0564 1.08846C72.1904 1.18176 72.5203 1.42018 72.8604 1.77264C74.2623 3.20319 74.5509 5.1417 74.623 6.04357V110.194C74.623 113.542 71.9327 116.248 68.6136 116.248Z" fill="white"/>
<path d="M68.6136 116.248H6.44781C3.12873 116.248 0.438416 113.552 0.438416 110.227V6.78632C0.438416 3.46053 3.12873 0.764786 6.44781 0.764786H68.6136C69.1496 0.764786 70.0979 0.837094 71.1493 1.32254C71.3967 1.43615 72.1595 1.80796 72.8604 2.53096C74.4169 4.10089 74.5921 6.16661 74.623 6.78632V110.216C74.623 113.552 71.9327 116.248 68.6136 116.248Z" fill="url(#paint0_linear_20_23228)"/>
<path opacity="0.8" d="M40.6487 107.07C43.8551 106.87 46.6747 105.9 47.684 104.44C47.684 104.44 47.6779 104.412 47.6676 104.359C47.6647 104.346 47.6617 104.33 47.6568 104.314C47.6314 104.191 47.5881 103.978 47.5278 103.694C47.5233 103.67 47.5189 103.646 47.5128 103.621C47.4949 103.534 47.4772 103.441 47.4561 103.342C47.441 103.273 47.426 103.202 47.411 103.126C47.3679 102.911 47.3202 102.673 47.2679 102.416C47.2647 102.407 47.2633 102.397 47.262 102.386C47.259 102.371 47.256 102.355 47.2531 102.341C47.2501 102.324 47.2456 102.305 47.2393 102.282C47.235 102.26 47.2304 102.236 47.2261 102.212C47.2112 102.14 47.1962 102.066 47.1812 101.992C47.1781 101.979 47.1769 101.966 47.1737 101.953C47.1531 101.847 47.1306 101.737 47.1101 101.626C47.0765 101.462 47.043 101.292 47.0083 101.117C47.0014 101.082 46.9947 101.048 46.9878 101.013C46.9701 100.92 46.9524 100.826 46.9333 100.729C46.9288 100.711 46.9258 100.695 46.9228 100.678C46.8874 100.493 46.8508 100.304 46.8136 100.112C46.795 100.016 46.7765 99.918 46.7578 99.8201C46.7541 99.8004 46.7509 99.7813 46.747 99.7616C46.7322 99.6858 46.7175 99.6084 46.7045 99.531C46.6747 99.3833 46.6468 99.2338 46.6188 99.0826C46.6111 99.0418 46.6036 99.0011 46.596 98.9603C46.5831 98.8898 46.5702 98.8191 46.5572 98.7492C46.5219 98.559 46.4867 98.3672 46.4516 98.1738C46.4384 98.0997 46.4234 98.0271 46.4122 97.953C46.3301 97.5082 46.2499 97.0584 46.1733 96.6074C46.1225 96.3158 46.0735 96.0257 46.0262 95.7358C46.0233 95.7197 46.0203 95.7035 46.0174 95.6874C45.9865 95.4967 45.9555 95.3065 45.9246 95.1186C45.9213 95.0976 45.9179 95.0765 45.9146 95.0556C45.8803 94.8453 45.8474 94.6352 45.8165 94.4264C45.7937 94.2847 43.6548 78.4779 43.6353 78.3394C43.6239 78.2686 43.6143 78.1992 43.6044 78.1301C43.5879 78.0194 43.5727 77.9117 43.5572 77.803C43.5152 77.507 43.4768 77.2197 43.4416 76.9419C43.4272 76.8278 43.4128 76.7132 43.3998 76.6027C43.3986 76.5925 43.3975 76.5823 43.3963 76.572C43.386 76.487 43.3762 76.4029 43.3669 76.3202C43.3626 76.2816 43.3587 76.2443 43.3545 76.2063C43.3478 76.1439 43.3409 76.0811 43.3346 76.02C43.3232 75.9044 43.3118 75.792 43.3019 75.6827C43.2895 75.5452 43.2785 75.4131 43.2687 75.2849C43.2637 75.2178 43.2588 75.151 43.2547 75.0868C43.2537 75.0708 43.2527 75.0549 43.2517 75.0393C43.249 74.9948 43.2472 74.9529 43.245 74.9098C43.2433 74.8731 43.2411 74.8359 43.2401 74.8005C43.2356 74.7378 43.2344 74.677 43.2334 74.6179C43.2307 74.5632 43.2299 74.5104 43.2301 74.4598C43.2295 74.4001 43.2287 74.3404 43.2295 74.2851C43.2297 74.0842 43.2336 73.883 43.2415 73.6819C43.2431 73.6406 43.2466 73.5992 43.2486 73.5579C43.2561 73.4001 43.2649 73.2426 43.2779 73.0854C43.2834 73.0191 43.2919 72.9531 43.2986 72.8869C43.3114 72.7579 43.3246 72.629 43.3417 72.5008C43.3541 72.4084 43.3703 72.3168 43.3851 72.2251C43.4055 72.0967 43.4244 71.9679 43.4498 71.8408C43.4498 71.8408 43.4827 71.8326 43.543 71.816C43.5517 71.8135 43.5625 71.8099 43.5725 71.8068C43.7066 71.769 43.9473 71.7 44.2744 71.6012C44.2773 71.6004 44.2801 71.5996 44.283 71.5986C44.3132 71.5896 44.3457 71.5795 44.3772 71.5699C44.6728 71.4801 45.0255 71.3702 45.4252 71.2396C45.5154 71.2095 45.6101 71.1778 45.7043 71.1465C45.7261 71.1392 45.748 71.1319 45.77 71.1244C45.7915 71.1173 45.8114 71.1106 45.8333 71.1034C45.8606 71.0945 45.8882 71.0846 45.9156 71.0754C45.9327 71.0697 45.9494 71.064 45.9666 71.0583C46.0284 71.0372 46.0902 71.0163 46.1537 70.9954C46.2137 70.9742 46.2781 70.9517 46.3397 70.9301C46.4301 70.8985 46.5219 70.8665 46.6149 70.8336C46.6198 70.8318 46.6245 70.8302 46.6296 70.8284C46.6517 70.8208 46.6743 70.8125 46.6964 70.8048C46.7409 70.7891 46.7844 70.7737 46.8293 70.7576C46.8703 70.743 46.9108 70.7288 46.9518 70.714C46.9902 70.6997 47.0288 70.6853 47.069 70.6711C47.0948 70.6618 47.1212 70.6516 47.147 70.6422C47.2104 70.6189 47.2744 70.5951 47.3384 70.5715C47.3691 70.56 47.3992 70.5492 47.4299 70.5376C47.4392 70.5342 47.4488 70.5303 47.4579 70.5269C47.6623 70.4505 47.8693 70.3716 48.0794 70.2895C48.1109 70.2772 48.141 70.2662 48.1726 70.2538C48.2553 70.2205 48.3395 70.1873 48.4238 70.154C48.4882 70.1264 48.5542 70.1002 48.6184 70.0742C48.6863 70.0466 48.756 70.0193 48.8258 69.9901C48.8937 69.961 48.9634 69.9318 49.0333 69.9029C49.052 69.895 49.0709 69.8867 49.0898 69.8789C49.1775 69.8418 49.2649 69.8046 49.3525 69.7668C49.3827 69.7538 49.4128 69.7412 49.4429 69.7282C49.4673 69.7178 49.4914 69.7066 49.5158 69.6957C49.6241 69.6483 49.7324 69.6002 49.8405 69.5516C49.8482 69.548 49.8561 69.5447 49.8638 69.5413C49.8673 69.5397 49.8705 69.538 49.874 69.5366C50.1436 69.4149 50.4112 69.2895 50.6755 69.1607C50.679 69.1589 50.6826 69.1573 50.6863 69.1555C50.6985 69.1496 50.7104 69.1437 50.7224 69.1378C51.0479 68.9781 51.3683 68.8137 51.6779 68.6439C51.6786 68.6435 51.6794 68.6431 51.6802 68.6427C51.6802 68.6412 51.6822 68.6412 51.684 68.6414C51.7984 68.5774 51.911 68.5149 52.0221 68.4509C52.0309 68.4458 52.039 68.4407 52.0479 68.4356C52.5518 68.1441 53.0225 67.8397 53.4394 67.524C53.5585 67.4346 53.6725 67.3434 53.7808 67.252C53.8405 67.2034 53.8968 67.1546 53.953 67.1042C54.1759 66.9072 54.3756 66.7062 54.5467 66.5006C54.5904 66.4496 54.6322 66.3986 54.6704 66.3458C54.7103 66.2946 54.7487 66.2436 54.7834 66.1906C54.7852 66.189 54.7871 66.1877 54.7871 66.1861C54.8216 66.1365 54.8545 66.0849 54.8854 66.035C54.9165 65.9834 54.9457 65.9336 54.973 65.882C54.975 65.8789 54.977 65.8757 54.977 65.8726C55.0061 65.821 55.03 65.7708 55.0538 65.719C55.2694 65.242 55.4486 64.6601 55.6005 64.0081L55.6005 64.0083C55.601 64.0057 55.6016 64.0031 55.6022 64.0006C55.7745 63.258 55.9098 62.4224 56.0174 61.5348C56.0175 61.5329 56.0179 61.5307 56.0181 61.5287C56.0353 61.3873 56.0516 61.2448 56.0672 61.1012C56.0686 61.0878 56.0701 61.0746 56.0715 61.0612C56.0869 60.9189 56.1018 60.7755 56.116 60.6311C56.1168 60.6241 56.1174 60.617 56.118 60.6099C56.424 57.4785 56.4459 53.9313 56.5609 51.6964C56.5617 51.679 56.5626 51.6617 56.5636 51.6446C56.5689 51.5435 56.5745 51.4461 56.5802 51.3507C56.5815 51.3261 56.5831 51.3009 56.5847 51.2767C56.5904 51.1865 56.5963 51.1001 56.6024 51.0158C56.604 50.9935 56.6056 50.9701 56.6071 50.9482C56.615 50.8448 56.6231 50.7454 56.6318 50.6515C56.7714 49.2675 57.6838 46.8443 58.644 44.5256C58.6532 44.518 58.6532 44.518 58.6532 44.518C59.8811 41.5867 60.8255 39.1667 60.7773 38.8575C60.6922 38.31 58.3328 37.6312 55.9726 38.1233C53.6198 38.6157 51.0469 43.4557 50.8949 44.4906C50.736 45.5172 52.4419 50.2214 52.4419 50.2214L51.6897 53.2974L49.1164 53.5372C49.1172 53.537 49.1178 53.5368 49.1186 53.5368L49.1412 50.7218C49.1412 50.7218 49.1387 50.7212 49.1381 50.7212L49.1381 50.7202C49.1497 49.3803 49.1531 47.6353 49.1649 45.6477L49.1653 45.6399C49.1781 40.5125 49.179 33.7498 49.0536 28.055L49.052 27.7078C48.962 23.3087 48.8167 19.5789 48.5703 17.8089C48.5985 17.1415 46.3287 16.0903 44.146 17.5694C41.542 19.3339 42.3329 31.0938 43.2271 32.6732C43.2129 32.669 43.2011 32.6657 43.1934 32.6633C43.2614 32.9733 43.297 33.1556 43.297 33.1556L43.1854 35.2862L42.7051 44.4311L42.7736 44.4435L42.7708 44.4947L41.786 44.4532C41.786 44.4532 41.3894 36.5524 40.8069 28.2279L40.8073 28.2201C40.399 22.3006 41.4248 16.2563 40.8872 12.5884C40.6797 11.3528 38.7929 10.5086 36.7569 11.7997C36.5544 11.9281 36.3752 12.0555 36.2153 12.1821C36.1385 12.2319 36.0682 12.2863 36.006 12.3453C36.006 12.3453 36.002 12.3532 35.9944 12.368C34.7659 13.4639 34.9564 14.494 34.823 15.4991C34.8024 15.4885 34.7799 15.4783 34.7565 15.4682C34.7569 15.4475 34.7571 15.4355 34.7571 15.4355C34.7541 15.4446 34.7514 15.455 34.7484 15.4645C33.9434 15.1236 31.6842 15.113 31.2776 16.6336C31.2776 16.6336 30.5216 18.9465 30.2382 22.4934C30.2376 22.5064 30.235 22.5194 30.2335 22.5324C30.2299 22.5584 30.227 22.5846 30.2256 22.6108C30.2236 22.6267 30.2228 22.6427 30.2222 22.6592L30.2218 22.6671C30.1567 23.6112 30.1228 24.6271 30.1586 25.6555C30.1673 25.6637 30.1673 25.6637 30.1578 25.6714C30.1624 25.7933 30.1696 25.916 30.1763 26.0385C30.1442 25.8938 30.1155 25.7498 30.0921 25.6078C30.1466 27.0448 30.342 28.5294 30.7447 29.9668L30.7226 30.4473L30.1017 43.8984L30.1704 43.9014L30.1677 43.962L30.1657 44.0083L27.7876 43.8614C27.7876 43.8614 27.8006 39.1131 27.8114 34.2047L27.8116 34.1984C27.812 33.9315 27.8124 33.6643 27.813 33.3973C27.8154 32.3459 27.8175 31.2986 27.8195 30.3008L27.8124 30.2972C27.8177 28.4197 27.8175 26.7179 27.8191 25.4863C27.84 23.8105 23.2303 24.3274 22.7039 26.5944C22.4853 27.2025 22.3252 30.2638 22.2989 32.5099C22.2668 34.7622 23.2274 36.9573 23.2274 36.9573L23.2047 47.014C23.2047 47.014 23.1242 49.7714 23.1559 53.2452C23.1602 53.3559 23.1553 53.4738 23.1588 53.6004C23.203 58.2343 23.4391 63.9962 24.2762 66.2966L29.9694 70.971C29.9694 70.971 32.251 90.5684 32.6338 95.8085C32.8677 98.979 33.1824 102.628 33.5917 106.175C35.0251 106.685 36.6042 106.972 38.1767 107.07L40.6487 107.07L40.6487 107.07Z" fill="url(#paint1_radial_20_23228)"/>
<path d="M39.0164 107.07C41.7449 106.642 44.0424 105.63 45.0674 104.148L45.25 103.224L45.2307 103.13C45.2275 103.116 45.2242 103.101 45.2204 103.086L45.2023 102.998C45.1773 102.877 45.1436 102.713 45.1011 102.512C45.0952 102.48 45.0889 102.449 45.0816 102.417L45.0664 102.343C45.054 102.28 45.041 102.216 45.0261 102.146C45.0129 102.085 44.9997 102.023 44.9855 101.95L44.8327 101.19C44.8276 101.163 44.8209 101.132 44.8124 101.097L44.7604 100.839C44.7574 100.823 44.7543 100.806 44.7509 100.79L44.7309 100.688C44.7183 100.624 44.7053 100.559 44.6932 100.493L44.6887 100.471C44.6562 100.312 44.6237 100.147 44.5903 99.9778L44.3335 98.6466C44.3209 98.5826 44.3085 98.5174 44.2974 98.4522L44.2903 98.4138C44.2624 98.2746 44.236 98.1334 44.209 97.9883L44.1487 97.6623C44.1143 97.4768 44.08 97.2896 44.0467 97.106L44.0304 97.0174C44.0241 96.9837 44.0176 96.9501 44.0125 96.916L44.0064 96.8801C43.9266 96.4481 43.8486 96.0113 43.7754 95.5791C43.7342 95.3169 43.0483 90.2868 42.4973 86.2451C41.8295 81.3467 41.5345 79.1862 41.5133 79.0551L41.4034 78.3861C41.3705 78.1848 41.339 77.9836 41.3073 77.7699C41.2862 77.6382 41.2663 77.5096 41.2484 77.381L41.2449 77.3576C41.2356 77.2999 41.2277 77.2433 41.2198 77.187L41.1714 76.8528C41.131 76.5677 41.094 76.2908 41.0603 76.0232C41.0465 75.9147 41.0328 75.8052 41.0192 75.6886L40.952 75.0799C40.9434 74.9936 40.9351 74.9094 40.9276 74.8264C40.916 74.6971 40.9055 74.573 40.8961 74.4499C40.8916 74.3899 40.8872 74.3302 40.8825 74.256L40.8683 73.9783C40.8654 73.9397 40.8654 73.9017 40.8646 73.8635L40.8634 73.8259C40.8618 73.7944 40.8618 73.7658 40.8614 73.716C40.8608 73.6671 40.8605 73.6177 40.8608 73.5582C40.8608 73.3757 40.8646 73.1929 40.8717 73.009L40.8784 72.8979C40.8851 72.7569 40.8929 72.6157 40.9044 72.4763C40.9067 72.4476 40.9101 72.4188 40.9134 72.3903L40.9231 72.2999C40.9306 72.2262 40.9378 72.1524 40.9461 72.0793C40.9796 72.0693 41.0139 72.059 41.0493 72.0484L41.0491 72.0478L41.0605 72.0443L41.0607 72.0448L41.1523 72.0171C41.4495 71.9267 41.8041 71.816 42.2137 71.6823L42.6011 71.5529C42.6289 71.5441 42.6566 71.5346 42.6842 71.525L43.4109 71.2735L44.2525 70.9673C44.4591 70.8901 44.668 70.8101 44.8746 70.7296L45.2543 70.5797C45.2917 70.5638 45.3299 70.5484 45.3677 70.5332L45.9032 70.3119C45.9926 70.2743 46.082 70.2361 46.1678 70.1991L46.336 70.126C46.4465 70.0777 46.557 70.0287 46.67 69.9779L46.7021 69.9635C46.9849 69.8357 47.2602 69.7065 47.5302 69.5746L47.5706 69.5549C47.9351 69.3761 48.2582 69.2089 48.5585 69.0441L48.6145 69.0135C48.7171 68.9562 48.8185 68.8997 48.9183 68.8422L48.9453 68.8259C49.5052 68.5019 50.0065 68.1733 50.4309 67.8521C50.5587 67.7564 50.6873 67.6542 50.8128 67.5484C50.8835 67.4905 50.95 67.433 51.0099 67.3792C51.2799 67.1408 51.5188 66.8974 51.71 66.6676C51.7685 66.5992 51.8244 66.5305 51.8762 66.4602C51.9262 66.3956 51.974 66.3308 52.0184 66.2646L52.0186 66.2648C52.064 66.1993 52.1076 66.1315 52.1572 66.0518C52.1989 65.9826 52.2375 65.9159 52.2744 65.8468L52.2738 65.8464C52.3147 65.7727 52.3496 65.7002 52.3876 65.6181C52.6223 65.0986 52.8226 64.4765 53.0014 63.7081C53.1702 62.9809 53.3149 62.1227 53.4319 61.1575L53.4327 61.1506C53.4498 61.0075 53.4664 60.8631 53.4823 60.7186L53.4868 60.677C53.5026 60.5329 53.5176 60.3875 53.5302 60.2572L53.5339 60.2205C53.7444 58.0669 53.8216 55.6839 53.8839 53.7694C53.9122 52.8984 53.9388 52.0756 53.9738 51.3972L53.9764 51.3482C53.9813 51.2523 53.9868 51.1595 53.9922 51.0678L53.9963 50.9988C54.0016 50.9145 54.0071 50.834 54.0132 50.7505L54.0174 50.6902C54.0245 50.5961 54.0319 50.5053 54.039 50.4279C54.1871 48.9598 55.4898 45.8088 55.9282 44.7505L55.9417 44.7324C58.2261 39.2787 58.1721 38.9297 58.1087 38.5258C58.0632 38.2342 57.9004 37.8114 57.3833 37.4534C56.427 36.7915 54.1422 36.377 51.9731 36.8291C49.7722 37.2897 47.7192 40.3078 46.7055 42.3638C46.709 37.8 46.6897 32.5737 46.5903 28.066L46.5885 27.7155C46.4869 22.7451 46.3313 19.535 46.1131 17.9083C46.0804 17.2998 45.6759 16.7394 44.9843 16.3536C43.7764 15.6799 41.7413 15.5533 39.9184 16.7886C39.3989 17.1405 38.9682 17.7203 38.6269 18.5249C38.7331 16.2813 38.7823 14.3178 38.5448 12.6953L38.5408 12.6709C38.3904 11.7748 37.7545 10.9964 36.84 10.5883C35.585 10.0283 34.0686 10.2122 32.6793 11.0931C32.4688 11.2268 32.2697 11.3664 32.087 11.5086C31.9684 11.5891 31.8589 11.677 31.7604 11.7705L31.7356 11.8044C30.7742 12.6787 30.4755 13.5688 30.3593 14.3319C29.6801 14.3144 28.9377 14.4306 28.3048 14.7398C27.5312 15.1179 27.008 15.7289 26.7902 16.509C26.6949 16.8097 25.9985 19.0934 25.7248 22.492C25.7187 22.5373 25.7138 22.5826 25.7104 22.6279C25.7081 22.6537 25.7063 22.6811 25.7049 22.712C25.6488 23.5273 25.623 24.2866 25.6267 25.0082C25.4221 24.2963 24.7849 23.5924 23.4696 23.4333C21.7146 23.2212 18.8993 24.131 18.3505 26.3266C17.9708 27.5934 17.9101 32.399 17.9096 32.4457C17.909 32.4873 17.9088 32.5288 17.9088 32.5704C17.9088 34.542 18.5657 36.4124 18.8223 37.0676L18.8005 46.7119C18.794 46.9455 18.7227 49.6067 18.7524 52.8702L18.7534 52.9065C18.755 52.9464 18.7544 52.9874 18.7542 53.0305C18.7538 53.0943 18.7538 53.1615 18.7556 53.2298C18.8186 59.8103 19.2122 64.141 19.9259 66.102L20.2865 66.611L25.518 70.9066C25.8682 73.9249 27.776 90.4457 28.1137 95.071C28.3906 98.8244 28.7092 102.272 29.0606 105.317L29.8388 106.295C30.8357 106.649 31.8961 106.904 32.9769 107.069L39.0164 107.069L39.0164 107.07ZM31.3225 104.294C31.0084 101.469 30.722 98.3126 30.4702 94.8985C30.0962 89.7772 27.903 70.9586 27.8099 70.1599L27.3861 69.3838L22.0505 65.0029C21.5033 63.1646 21.1734 59.0065 21.1183 53.1987L21.1179 53.1761C21.1165 53.13 21.1169 53.0847 21.1171 53.0412C21.1173 52.9703 21.1173 52.9011 21.1151 52.8342C21.085 49.4872 21.162 46.7919 21.1628 46.7653L21.1856 36.8409L21.0866 36.3646C21.0781 36.3455 20.2489 34.389 20.2723 32.4772C20.302 29.9467 20.4763 27.4707 20.6012 27.0444L20.6403 26.9119C20.7166 26.5836 21.0913 26.2521 21.6427 26.0255C22.3298 25.7429 23.0163 25.7301 23.3394 25.8033L23.3386 26.6795C23.3379 27.72 23.3369 28.9571 23.3331 30.2834L23.3402 30.2949L23.3337 33.3346L23.3321 34.1283C23.3215 38.9559 23.3087 43.6263 23.3087 43.6265L24.4174 44.809L26.7567 44.9536L28.0102 43.8242L28.0147 43.7243L27.9501 43.6538L28.5795 30.0162L28.5369 29.643C28.2272 28.5375 28.0326 27.3278 27.9578 26.0414L28.02 26.0328L28.0172 25.9845C28.0135 25.918 28.0098 25.8516 28.0066 25.7854L28.0094 25.7801L28.006 25.7718C28.0048 25.7453 28.0037 25.7185 28.0027 25.6921L27.9747 25.6933L27.9698 25.6809L28.0035 25.6797C27.9727 24.8083 27.9928 23.8872 28.0635 22.8624L28.0655 22.8229C28.0647 22.8382 28.0631 22.8534 28.0614 22.8687L28.0657 22.8195C28.0657 22.8205 28.0657 22.8213 28.0655 22.8221L28.0665 22.811L26.893 22.6722L27.6319 22.7455L28.0667 22.8091C28.0722 22.7719 28.0765 22.7346 28.0793 22.6974C28.3422 19.4138 29.0397 17.2337 29.0464 17.2132L29.0647 17.1513C29.0811 17.0901 29.1114 16.9763 29.3424 16.8636C29.8306 16.6252 30.6242 16.6773 30.8764 16.7841L32.465 16.0488L32.4714 16.0269L32.3717 15.9952L32.5818 15.8855C32.6112 15.6655 32.6259 15.458 32.6403 15.2575C32.6929 14.5291 32.7244 14.0893 33.3493 13.532L33.3869 13.4836L33.3878 13.4848C33.3888 13.4838 33.3991 13.4743 33.4227 13.459L33.5133 13.3942C33.6433 13.2916 33.7888 13.1888 33.9455 13.0891C34.98 12.4334 35.6858 12.6614 35.8776 12.7471C36.082 12.8382 36.1905 12.9668 36.2096 13.0566C36.455 14.7528 36.3378 17.0486 36.2023 19.7055C36.0672 22.353 35.9142 25.353 36.1181 28.3183L36.1182 28.3341C36.6838 36.4166 37.0761 44.1934 37.08 44.2712L38.2102 45.3923L39.1789 45.4333L40.4087 44.3159L40.4113 44.2655L40.3475 44.1849L40.9262 33.1604L40.9059 32.8721C40.9059 32.8721 40.8691 32.683 40.7984 32.361L40.3859 32.4516L40.7078 32.0458C40.4625 31.571 40.0005 28.7169 40.021 25.1992C40.0507 20.7293 40.8341 19.0227 41.2441 18.7449C42.3622 17.9871 43.4105 18.2023 43.7929 18.3932C43.9855 19.971 44.131 23.1194 44.2257 27.7451L44.2275 28.1072C44.349 33.6212 44.3498 40.2255 44.3372 45.3659L44.3368 45.3797C44.3319 46.2196 44.3283 47.0154 44.325 47.7544C44.3207 48.7349 44.3169 49.6156 44.3102 50.3777L44.3132 50.3809L44.2909 53.1379L45.3589 53.1465L45.5802 54.3243L48.1115 54.0884L49.1495 53.1926L49.8894 50.1668L49.8524 49.4835C49.1385 47.5142 48.3908 45.0402 48.3908 44.4252C48.3908 44.4209 48.3908 44.4163 48.3908 44.4124C48.5958 43.4114 50.8935 39.4691 52.4559 39.1424C53.7429 38.8742 54.9394 39.0304 55.5873 39.2151C55.3634 39.8632 54.8663 41.1818 53.7645 43.8128L53.7507 43.8313C52.4508 46.9699 51.8145 48.9311 51.6867 50.1991C51.6775 50.298 51.6688 50.4029 51.6609 50.5065L51.6558 50.5804C51.6493 50.6676 51.6432 50.757 51.6371 50.8531L51.6328 50.926C51.6269 51.023 51.6212 51.1219 51.6158 51.2259L51.6131 51.2765C51.577 51.9764 51.5501 52.8098 51.5213 53.6924C51.4571 55.6707 51.3844 57.9131 51.1812 59.9901L51.1793 60.0114C51.1659 60.1491 51.1517 60.2857 51.1369 60.4214L51.1328 60.4598C51.1178 60.5969 51.1023 60.733 51.0859 60.8678L51.0851 60.8732C50.9784 61.7546 50.8484 62.5283 50.6972 63.1802C50.5576 63.7798 50.4016 64.2725 50.2377 64.6355C50.2277 64.6567 50.2186 64.6784 50.2064 64.6997L50.1875 64.7361C50.1704 64.7684 50.1517 64.7995 50.1409 64.818C50.1208 64.8503 50.0997 64.8838 50.0772 64.9159L50.0566 64.9456C50.0396 64.9712 50.0207 64.9956 50.0012 65.0205L49.977 65.0527C49.9573 65.0799 49.9353 65.1057 49.903 65.1435C49.7789 65.2926 49.6247 65.4488 49.438 65.6138C49.3969 65.6508 49.3559 65.6865 49.312 65.7221L49.2956 65.7357C49.206 65.8113 49.1119 65.8867 49.0087 65.9639C48.657 66.2302 48.2372 66.5047 47.757 66.7826L47.7299 66.7989C47.6418 66.8495 47.5526 66.8993 47.462 66.9498L47.4211 66.9728L47.4207 66.9722C47.1525 67.1195 46.8606 67.2703 46.529 67.433L46.4851 67.4545C46.2356 67.5762 45.9827 67.6945 45.7283 67.8095L45.7287 67.8103L45.7177 67.8152L45.7173 67.8147L45.6972 67.8237C45.5946 67.8698 45.4922 67.9155 45.3882 67.9608L45.2326 68.0283C45.1497 68.0644 45.0668 68.0992 44.9812 68.1355L44.9325 68.1561C44.8604 68.1861 44.7886 68.2164 44.7305 68.2414L44.4819 68.3418C44.4345 68.3611 44.3868 68.3802 44.3396 68.4003L44.019 68.5263C43.8179 68.6049 43.6198 68.6805 43.4361 68.7493L43.056 68.8903C43.0146 68.905 42.9749 68.9196 42.9353 68.9348L41.4717 69.4387C41.0871 69.5643 40.748 69.6699 40.4644 69.7562L40.3644 69.7863C40.0529 69.8804 39.8238 69.9464 39.696 69.9822L39.6088 70.0067L38.7368 70.9214C38.7136 71.0372 38.6948 71.1543 38.6765 71.2713L38.656 71.3977C38.6425 71.4795 38.6291 71.5614 38.6176 71.6463C38.5991 71.7851 38.5846 71.9249 38.5706 72.0659L38.5637 72.1295C38.5582 72.1792 38.5527 72.229 38.5485 72.2802C38.5345 72.4484 38.5249 72.6177 38.517 72.7839L38.5149 72.8174C38.5127 72.8517 38.5105 72.8857 38.5093 72.9186C38.5011 73.1315 38.4967 73.3444 38.4967 73.5433C38.4958 73.6061 38.4967 73.6752 38.4973 73.7252C38.4977 73.7884 38.4981 73.8556 38.5011 73.9241C38.5024 73.9899 38.5042 74.0573 38.5087 74.126C38.5099 74.1559 38.5115 74.1888 38.5137 74.2317L38.5241 74.4206C38.5282 74.4871 38.5334 74.5563 38.5389 74.6305C38.5487 74.7623 38.5601 74.8977 38.5729 75.0383C38.581 75.1281 38.5901 75.2199 38.5995 75.314L38.6397 75.6917C38.6492 75.7762 38.659 75.8619 38.67 75.9531L39.8433 75.8129L38.6726 75.9751C38.6856 76.087 38.7004 76.2034 38.7149 76.3194C38.7502 76.5982 38.7888 76.8867 38.8313 77.187L38.8792 77.5175C38.8886 77.585 38.8983 77.6526 38.9093 77.7213C38.929 77.8613 38.9505 78.0013 38.9713 78.1313C39.0026 78.3418 39.0359 78.5541 39.0696 78.7618L39.1714 79.3869L39.1809 79.4403C39.2228 79.7266 39.6968 83.202 40.1551 86.5647C41.0838 93.3774 41.4183 95.8232 41.4438 95.9692C41.5192 96.4132 41.5981 96.8559 41.6789 97.2939C41.6874 97.3471 41.697 97.3996 41.7068 97.4524L41.7198 97.5231C41.7547 97.7149 41.7896 97.9052 41.8244 98.0926L41.8853 98.4219C41.9128 98.5704 41.9402 98.7173 41.9694 98.8622C41.9829 98.9424 41.9985 99.0239 42.0168 99.1182L42.1834 99.9845C42.1887 100.015 42.1944 100.045 42.2013 100.075L42.2712 100.437C42.3049 100.607 42.3378 100.774 42.3707 100.934C42.3841 101.006 42.3981 101.077 42.4118 101.147L42.4428 101.302L42.4422 101.302L42.4481 101.332C42.4605 101.394 42.4731 101.456 42.4857 101.516L42.5117 101.639C42.5105 101.634 42.5095 101.628 42.5087 101.624L42.5139 101.649C42.5139 101.65 42.5141 101.651 42.5142 101.652C42.5139 101.65 42.5137 101.649 42.5133 101.647L42.515 101.656C42.52 101.687 42.5259 101.717 42.5326 101.746L42.6669 102.411C42.6832 102.494 42.6996 102.571 42.7153 102.644C42.7273 102.7 42.738 102.754 42.7482 102.805L42.7813 102.962L42.7758 102.938L42.7852 102.987C42.797 103.043 42.8083 103.096 42.8187 103.146C41.1734 104.651 35.9016 105.648 31.3225 104.294ZM25.701 27.375C25.8095 28.3236 25.9796 29.2332 26.21 30.094L25.6768 41.6475C25.6815 39.8386 25.6886 37.0168 25.6949 34.1387L25.703 30.2929L25.6959 30.2815C25.699 29.2405 25.7002 28.2543 25.701 27.375ZM46.6895 47.4776C46.9518 48.3488 47.2519 49.2296 47.5095 49.9512L47.054 51.8137L46.6647 51.85L46.6765 50.3878L46.6734 50.3838C46.6799 49.6308 46.6836 48.7477 46.6879 47.7647C46.6887 47.6702 46.6891 47.5745 46.6895 47.4776Z" fill="white"/>
<path d="M25.7228 22.518C25.7218 22.5313 25.7208 22.5451 25.7202 22.5584L25.7228 22.518Z" fill="white"/>
<path d="M25.7291 22.4617C25.7284 22.4655 25.728 22.4692 25.7276 22.4728L25.7291 22.4617Z" fill="white"/>
<path d="M42.9227 103.641L42.9214 103.635C42.922 103.636 42.9225 103.639 42.9227 103.641Z" fill="white"/>
<path d="M43.7605 18.11L43.753 17.9529C43.7507 18.0084 43.7536 18.061 43.7605 18.11Z" fill="white"/>
<path d="M44.5115 99.5753C44.5087 99.5605 44.5053 99.546 44.5013 99.5302L44.5115 99.5753Z" fill="white"/>
<path d="M44.5136 99.5888C44.5129 99.5841 44.512 99.5796 44.5111 99.5751L44.5136 99.5888Z" fill="white"/>
<path d="M44.8255 101.173C44.8223 101.161 44.8186 101.148 44.8146 101.136L44.8243 101.174L44.8255 101.173Z" fill="white"/>
<path d="M44.832 101.198L44.8308 101.199L44.8411 101.239C44.8385 101.226 44.8354 101.213 44.832 101.198Z" fill="white"/>
<path d="M44.8535 101.315C44.8512 101.298 44.8474 101.271 44.8408 101.238L44.8535 101.315Z" fill="white"/>
<path d="M54.8517 44.2759C54.8517 44.2759 54.8517 44.2759 54.8426 44.2834C53.8981 46.5642 53.0007 48.9478 52.8633 50.3092C52.5766 53.4013 52.8158 61.8024 51.3107 65.1311C51.2873 65.1821 51.2638 65.2313 51.2351 65.2821C51.2349 65.2853 51.2329 65.2882 51.2312 65.2914C51.2042 65.3422 51.1754 65.3912 51.1449 65.4418C51.1144 65.4909 51.0821 65.5415 51.0482 65.5903C51.0482 65.5919 51.0462 65.5935 51.0445 65.5949C51.0102 65.6469 50.9726 65.6973 50.9332 65.7475C50.8956 65.7995 50.8544 65.8495 50.8115 65.8997C50.6433 66.1018 50.4468 66.2997 50.2276 66.4934C50.1723 66.5431 50.1169 66.5911 50.0583 66.639C49.9515 66.7288 49.8395 66.8186 49.7223 66.9064C49.5189 67.0598 49.303 67.2112 49.075 67.3605C48.9618 67.4344 48.8454 67.5066 48.7268 67.5803C48.5975 67.6598 48.4647 67.7392 48.3283 67.8184C48.2192 67.8814 48.1083 67.9428 47.9956 68.0056C47.9939 68.0056 47.9921 68.0055 47.9919 68.007C47.8649 68.0756 47.7361 68.1441 47.6071 68.2126C47.5419 68.2461 47.4765 68.2796 47.4112 68.3129C47.3458 68.3479 47.2804 68.3812 47.2134 68.4131C47.1481 68.4466 47.0811 68.4783 47.0142 68.5117C46.7477 68.6421 46.4781 68.7691 46.205 68.8914C46.138 68.9218 46.0693 68.9519 46.0008 68.982C45.932 69.0137 45.8615 69.0454 45.791 69.0754C45.6573 69.1327 45.5218 69.1913 45.3881 69.2471C45.3196 69.2756 45.2509 69.3042 45.1841 69.3329C45.1156 69.3615 45.0469 69.3885 44.9801 69.4156C44.9169 69.4412 44.8519 69.4668 44.7887 69.494C44.7056 69.5267 44.6227 69.5594 44.5413 69.5921C44.2942 69.6886 44.0508 69.7821 43.8109 69.8711C43.692 69.9164 43.573 69.9602 43.4559 70.0025C43.4163 70.0165 43.3785 70.0307 43.3407 70.0448C43.2343 70.0828 43.128 70.1208 43.0236 70.1573C42.8633 70.2134 42.7066 70.2681 42.5553 70.3215C42.4834 70.3451 42.4131 70.369 42.343 70.3928C42.3088 70.404 42.2745 70.4166 42.2404 70.4279C42.1018 70.4739 41.9687 70.5186 41.8391 70.562C40.9685 70.8461 40.3092 71.0369 40.0362 71.1136C40.0183 71.1191 40.002 71.1248 39.9876 71.1287C39.9283 71.1451 39.896 71.1531 39.896 71.1531C39.7387 71.9379 39.6794 72.7504 39.679 73.5576C39.6788 73.608 39.6782 73.6614 39.6794 73.7165C39.679 73.7701 39.68 73.8268 39.6829 73.8851C39.6841 73.9434 39.6851 74.0033 39.6896 74.0647C39.6936 74.1813 39.7009 74.3044 39.7095 74.4338C39.7206 74.5915 39.7349 74.7589 39.7505 74.9328C39.7601 75.0401 39.7714 75.1508 39.7826 75.2646C39.8015 75.4463 39.822 75.6344 39.8456 75.829C39.8651 75.9966 39.8864 76.1673 39.909 76.3445C39.9504 76.6657 39.9966 76.9981 40.0478 77.34C40.0575 77.4081 40.0669 77.4761 40.0782 77.5458C40.0973 77.6819 40.1182 77.8181 40.1406 77.9576C40.1723 78.1712 40.206 78.3867 40.2412 78.6021C40.2737 78.7986 40.306 78.9981 40.3385 79.1978C40.3415 79.2138 40.3442 79.2295 40.3472 79.2455C40.3937 79.5306 42.5597 95.4843 42.6097 95.7712C42.6849 96.2149 42.7639 96.6572 42.8446 97.095C42.8556 97.1678 42.8704 97.2393 42.8834 97.3122C42.9179 97.5024 42.9525 97.6911 42.9872 97.8783C43.0045 97.9719 43.0218 98.067 43.0392 98.1606C43.0695 98.3256 43.1 98.4872 43.1321 98.6475C43.1449 98.7236 43.1593 98.7998 43.1741 98.8742C43.1857 98.9345 43.1973 98.9947 43.2074 99.0534C43.2556 99.2994 43.3021 99.5404 43.3472 99.7752C43.3499 99.7927 43.3529 99.8084 43.3574 99.826C43.3795 99.937 43.3996 100.045 43.42 100.151C43.458 100.343 43.4947 100.529 43.5313 100.708C43.5514 100.817 43.5736 100.925 43.5939 101.03C43.5969 101.043 43.5983 101.055 43.6012 101.068C43.616 101.141 43.6305 101.214 43.6453 101.284C43.6496 101.308 43.654 101.331 43.6583 101.354C43.6644 101.376 43.6689 101.395 43.6719 101.411C43.6749 101.425 43.6778 101.441 43.6806 101.455C43.6819 101.466 43.6833 101.476 43.6865 101.485C43.7379 101.738 43.7847 101.973 43.8273 102.184C43.8419 102.258 43.8566 102.328 43.8716 102.396C43.8925 102.493 43.9098 102.585 43.9273 102.671C43.9334 102.695 43.9378 102.719 43.9421 102.742C44.0012 103.022 44.0439 103.231 44.0689 103.352C44.0736 103.368 44.0764 103.384 44.0795 103.396C44.0898 103.449 44.0957 103.476 44.0957 103.476C42.3816 105.955 35.361 107.004 30.2342 105.182C29.8317 101.693 29.5221 98.1034 29.2919 94.9847C28.9153 89.8301 26.6363 70.2969 26.6363 70.2969L21.0361 65.6986C20.2125 63.4359 19.9802 57.7682 19.9368 53.2097C19.9333 53.0853 19.9382 52.9691 19.9339 52.8604C19.9028 49.4433 19.9819 46.7308 19.9819 46.7308L20.0044 36.8381C20.0044 36.8381 19.0595 34.6788 19.091 32.4632C19.117 30.2537 19.2744 27.2425 19.4896 26.6444C19.9605 25.327 24.4989 24.7446 24.5213 25.5542C24.5199 26.7657 24.5199 28.4398 24.5148 30.2868L24.5217 30.2903C24.5099 36.1081 24.4902 43.6298 24.4902 43.6298L26.8295 43.7743L26.8315 43.7288L27.464 30.0245C27.0678 28.6105 26.8758 27.1501 26.822 25.7366C26.8311 25.7291 26.8311 25.7291 26.8226 25.7208C26.7874 24.7092 26.8206 23.71 26.8846 22.7813L26.885 22.7734C26.8864 22.7419 26.8876 22.7122 26.8978 22.681C26.89 22.657 26.8998 22.634 26.9008 22.6103C27.1794 19.1214 27.9232 16.8461 27.9232 16.8461C28.3362 15.3012 30.6934 15.363 31.4106 15.7301C31.5642 14.5724 32.5743 12.6277 32.5743 12.6277C33.5262 11.7238 36.3694 11.9117 36.5737 13.1271C37.1024 16.7352 36.8958 22.4207 37.2974 28.2435L37.297 28.2513C37.87 36.44 38.2601 44.2117 38.2601 44.2117L39.2288 44.2527L39.8111 33.1613C39.8111 33.1613 39.7761 32.9821 39.7091 32.6771C39.45 31.3775 38.7773 27.8167 39.0599 26.2915C39.4108 24.412 40.3769 18.85 40.784 17.9924C41.3801 16.7352 44.9612 17.3461 44.9334 18.0026C45.1756 19.7437 45.3188 23.4124 45.4072 27.7399C45.4072 27.7399 45.4047 27.8012 45.4068 27.9193C45.4049 27.9648 45.4025 28.0197 45.4088 28.0814C45.5323 33.6832 45.5313 40.3354 45.5187 45.3793L45.5183 45.3872C45.5067 47.3425 45.5033 49.0589 45.4919 50.3769L45.4704 53.1483L48.0017 52.9122L48.7416 49.8864C48.7416 49.8864 47.0636 45.259 47.2197 44.2491C47.3692 43.2312 49.9001 38.4701 52.2146 37.9856C54.5362 37.5016 56.8572 38.1692 56.9409 38.7078C56.9885 39.0118 56.0594 41.3925 54.8517 44.2759Z" fill="url(#paint2_linear_20_23228)"/>
<path d="M54.8517 44.2759C54.8517 44.2759 54.8517 44.2759 54.8427 44.2834C53.8982 46.5642 53.0008 48.9478 52.8634 50.3092C52.6162 52.9657 52.759 59.5374 51.8486 63.4482C50.6247 58.8225 45.4707 53.1483 45.4707 53.1483L48.002 52.9122L48.7419 49.8864C48.7419 49.8864 47.0638 45.259 47.22 44.2491C47.3695 43.2312 49.9004 38.4701 52.2149 37.9857C54.5365 37.5016 56.8574 38.1692 56.9411 38.7078C56.9886 39.0118 56.0595 41.3925 54.8517 44.2759Z" fill="url(#paint3_linear_20_23228)"/>
<path d="M24.4898 43.6298L19.9817 46.7308L20.0042 36.8382C20.0042 36.8382 19.0593 34.6788 19.0908 32.4632C19.1168 30.2537 19.3464 27.26 19.4894 26.6444C20.0073 24.4142 24.5418 23.9059 24.5211 25.5542C24.5061 26.7655 24.5197 28.4398 24.5146 30.2868L24.5215 30.2903C24.5097 36.1081 24.4898 43.6298 24.4898 43.6298Z" fill="url(#paint4_linear_20_23228)"/>
<path d="M26.8222 25.7208C26.7869 24.7092 26.8202 23.71 26.8842 22.7813L26.8846 22.7734C26.886 22.7419 26.8872 22.7121 26.8974 22.681C26.8895 22.657 26.8994 22.634 26.9003 22.6103C27.179 19.1214 27.9228 16.8461 27.9228 16.8461C28.3357 15.3012 30.693 15.363 31.4102 15.7301C31.5638 14.5723 31.2788 13.3807 33.3125 12.0911C35.3152 10.8211 37.1713 11.6515 37.3755 12.867C37.9042 16.4751 36.8954 22.4207 37.2969 28.2434L37.2965 28.2513C37.8696 36.4399 38.2597 44.2117 38.2597 44.2117L26.8308 43.7286L27.4634 30.0243C27.0671 28.6103 26.8751 27.1499 26.8214 25.7364C26.8306 25.7291 26.8306 25.7291 26.8222 25.7208Z" fill="url(#paint5_linear_20_23228)"/>
<path d="M39.7091 32.6771C38.8168 31.3508 37.9891 19.5235 40.5813 17.7669C42.7284 16.3118 44.9611 17.3461 44.9334 18.0024C45.1756 19.7435 45.3188 23.4122 45.4072 27.7397C45.4072 27.7397 45.4046 27.801 45.4068 27.9191C45.4048 27.9646 45.4024 28.0195 45.4087 28.0812L45.4087 28.1221C45.5324 33.7161 45.5306 40.3478 45.5186 45.3791L45.5182 45.387L39.2286 44.2527L39.8109 33.1613C39.8109 33.1613 39.8889 32.9445 39.7091 32.6771Z" fill="url(#paint6_linear_20_23228)"/>
<path opacity="0.6" fill-rule="evenodd" clip-rule="evenodd" d="M33.3387 59.9621C33.3387 59.9621 39.2001 54.435 45.4726 53.1477L45.4951 50.3785C45.4951 50.3785 30.6402 47.2814 25.7657 50.4387C25.7657 50.4387 26.0599 55.5612 27.2994 57.2953C28.539 59.0295 33.3387 59.9621 33.3387 59.9621Z" fill="#F3BAC0"/>
<path opacity="0.6" fill-rule="evenodd" clip-rule="evenodd" d="M45.4068 27.9193C45.4046 27.8012 45.4072 27.7399 45.4072 27.7399L45.4088 28.0814C45.4025 28.0197 45.4048 27.9648 45.4068 27.9193Z" fill="url(#paint7_linear_20_23228)"/>
<path opacity="0.2" fill-rule="evenodd" clip-rule="evenodd" d="M45.4539 45.3167L45.4535 45.3245L40.1006 44.3588L40.0953 44.3586L39.1639 44.1902L39.6363 35.1946L39.7462 33.0987C39.7462 33.0987 39.7111 32.9195 39.6442 32.6145C39.8527 32.6767 42.4986 33.4179 43.9348 33.2301C45.1694 33.0682 45.3251 29.2986 45.3438 28.0597L45.4539 45.3167Z" fill="#F3BAC0"/>
<path opacity="0.2" fill-rule="evenodd" clip-rule="evenodd" d="M38.1953 44.1493L26.7666 43.6662L27.3772 30.4347L27.3989 29.9621C27.0027 28.5481 26.8107 27.0877 26.7569 25.6742C26.9164 26.6423 27.266 27.6891 28.0058 28.6141L31.1701 27.925C31.1701 27.925 30.6837 17.6899 31.3457 15.6679C31.3457 15.6679 31.1762 23.416 32.0255 27.9613C32.0255 27.9613 35.2707 30.9006 37.2321 28.1891C37.3481 29.8524 37.4578 31.4981 37.5564 33.0662C37.9479 39.2141 38.1953 44.1493 38.1953 44.1493Z" fill="#D87290"/>
<path opacity="0.6" fill-rule="evenodd" clip-rule="evenodd" d="M26.9009 22.6111C26.8899 22.6649 26.8875 22.7193 26.8854 22.7734C26.9084 22.6425 26.9299 22.5503 26.9401 22.5119L26.9009 22.6111Z" fill="url(#paint8_linear_20_23228)"/>
<path opacity="0.2" fill-rule="evenodd" clip-rule="evenodd" d="M24.4898 43.6298L23.5451 44.2791L23.5451 44.2806L19.9817 46.7308L20.0042 36.8382L22.5126 36.9301L24.5144 30.2868L24.5213 30.2903C24.5189 31.5205 24.5152 32.8279 24.5136 34.1243L24.5134 34.1306C24.5028 38.9589 24.4898 43.6298 24.4898 43.6298Z" fill="#F3BAC0"/>
<path opacity="0.3" fill-rule="evenodd" clip-rule="evenodd" d="M45.4726 53.1477C45.4726 53.1477 38.5156 54.3879 34.6406 58.8418C34.6406 58.8418 37.4791 52.996 45.4951 50.3785L45.4726 53.1477Z" fill="#D87290"/>
<path opacity="0.6" d="M39.6791 73.5574C39.6504 75.9162 42.984 97.9926 43.6581 101.354C43.3333 100.056 38.2321 75.1324 38.4836 71.4897C38.5326 70.79 38.699 70.2967 39.0265 70.1061C39.1484 70.0358 39.2934 70.0072 39.4629 70.0253C41.01 70.1961 45.8849 68.4495 49.722 66.9062C46.4686 69.3696 39.896 71.1529 39.896 71.1529C39.8869 71.2014 39.8759 71.2512 39.8684 71.2996C39.7309 72.0381 39.6791 72.8006 39.6791 73.5574Z" fill="#F3BAC0"/>
<path opacity="0.5" d="M49.722 66.9064C46.4686 69.3697 39.896 71.1531 39.896 71.1531C39.8869 71.2016 39.0263 70.1078 39.0263 70.1078L39.0263 70.1063C39.1482 70.0359 39.2932 70.0074 39.4627 70.0255C41.01 70.1962 45.8849 68.4497 49.722 66.9064Z" fill="#D87290"/>
<path opacity="0.97" d="M42.957 68.3772C42.957 68.3772 46.9105 67.2443 47.6423 66.8479C48.3739 66.4513 50.4497 65.6671 50.7071 64.7319C50.9647 63.7967 51.9351 56.7367 51.9351 56.7367C51.9351 56.7367 50.6214 63.5783 49.9013 64.8432C49.1813 66.108 42.957 68.3772 42.957 68.3772Z" fill="#F5FFFF"/>
<path opacity="0.97" d="M35.3098 104.159C35.3098 104.159 31.9546 103.639 31.248 103.098C30.5416 102.556 27.8998 71.8701 27.8998 71.8701C27.8998 71.8701 31.3756 101.363 32.4142 102.424C33.453 103.485 35.3098 104.159 35.3098 104.159Z" fill="#F5FFFF"/>
<path opacity="0.97" d="M21.5414 55.4521C21.5414 55.4521 21.0018 61.5533 21.5354 63.6134C22.0691 65.6735 25.0437 67.5157 25.0437 67.5157C25.0437 67.5157 22.9667 65.7564 22.2883 62.9241C21.6101 60.0917 21.5414 55.4521 21.5414 55.4521Z" fill="#F5FFFF"/>
<path opacity="0.97" d="M44.5646 18.2683C44.5646 18.2683 41.564 18.9016 39.998 19.9749C39.998 19.9749 40.5526 18.4093 41.7225 17.9349C42.8925 17.4605 44.5646 18.2683 44.5646 18.2683Z" fill="#F5EE8F"/>
<path opacity="0.97" d="M39.8791 20.8398C39.8791 20.8398 39.6097 28.1261 40.8846 31.9215C40.8846 31.9215 39.4092 28.6261 39.2601 25.3311C39.1113 22.0359 39.8791 20.8398 39.8791 20.8398Z" fill="#F5FFFF"/>
<path opacity="0.97" d="M23.8348 25.5363C23.8348 25.5363 21.4817 26.0329 20.2537 26.8746C20.2537 26.8746 20.7096 25.6846 21.6062 25.2748C22.849 24.7066 24.1353 25.3553 23.8348 25.5363Z" fill="#F5EE8F"/>
<path opacity="0.97" d="M20.1602 27.5529C20.1602 27.5529 19.9489 33.2669 20.9489 36.2435C20.9489 36.2435 19.7919 33.6592 19.6749 31.0751C19.5582 28.4908 20.1602 27.5529 20.1602 27.5529Z" fill="#F5FFFF"/>
<path opacity="0.97" d="M36.7256 12.7593C36.7256 12.7593 33.6691 13.5476 32.0874 14.5385C32.0874 14.5385 32.6343 13.0765 33.8198 12.6433C35.0051 12.2098 36.7256 12.7593 36.7256 12.7593Z" fill="#F5EE8F"/>
<path opacity="0.97" d="M31.0724 15.8471C30.7869 15.7996 30.4966 15.7766 30.2261 15.8002C29.0764 15.9006 28.371 16.8788 28.371 16.8788C29.0827 16.6826 30.0598 16.571 30.9226 16.5076C30.9486 16.2811 30.9992 16.0605 31.0724 15.8471Z" fill="#F5EE8F"/>
<path opacity="0.97" d="M28.4244 17.4431C28.4244 17.4431 27.3646 23.9967 27.8043 27.797C27.8043 27.797 27.1393 24.4825 27.4949 21.2222C27.8504 17.962 28.4244 17.4431 28.4244 17.4431Z" fill="#F5FFFF"/>
<path opacity="0.97" d="M55.9418 38.9983C55.9418 38.9983 53.483 38.5245 51.9566 38.6846C51.9566 38.6846 53.345 38.0572 54.378 38.117C55.4111 38.1769 55.9418 38.9983 55.9418 38.9983Z" fill="#F5EE8F"/>
<path opacity="0.97" d="M55.7112 39.5497C55.7112 39.5497 53.2546 44.6753 50.7355 46.7751C50.7355 46.7751 53.2453 45.1 54.5935 42.8911C55.9417 40.6824 55.7112 39.5497 55.7112 39.5497Z" fill="#F5FFFF"/>
<path opacity="0.97" d="M38.4271 71.173C38.4271 71.173 42.0453 99.2381 42.9653 102.815C42.9653 102.815 37.9407 78.567 38.4271 71.173Z" fill="#F5FFFF"/>
<path fill-rule="evenodd" clip-rule="evenodd" d="M32.1113 32.3864L32.8293 43.9821L31.9853 43.9465C32.7139 40.8195 32.1589 36.8819 32.1113 32.3864Z" fill="#B24D61"/>
<path opacity="0.3" fill-rule="evenodd" clip-rule="evenodd" d="M32.1113 32.3864L32.8293 43.9821L29.7243 43.8507C29.8876 43.1501 31.3441 42.3257 31.3441 42.3257L31.5471 27.3246L32.1113 32.3864Z" fill="#D87290"/>
<path opacity="0.3" fill-rule="evenodd" clip-rule="evenodd" d="M42.0974 44.7698L40.1602 44.421L39.2288 44.2527L39.8121 33.1619C40.1608 38.1875 40.4143 43.4805 42.0974 44.7698Z" fill="#D87290"/>
<path opacity="0.3" fill-rule="evenodd" clip-rule="evenodd" d="M24.5132 34.1306C24.5025 38.9589 24.4898 43.6298 24.4898 43.6298L23.5451 44.2791C24.0195 41.6574 24.2936 38.028 24.5132 34.1306Z" fill="#D87290"/>
<path opacity="0.3" fill-rule="evenodd" clip-rule="evenodd" d="M28.3986 43.795L26.8313 43.7288L27.4419 30.4973C27.4837 35.26 27.7832 39.7159 28.3986 43.795Z" fill="#D87290"/>
<path opacity="0.31" fill-rule="evenodd" clip-rule="evenodd" d="M52.8633 50.3092C52.5766 53.4013 52.8159 61.8024 51.3108 65.1311C51.2873 65.1821 51.2639 65.2313 51.2351 65.2821C51.2349 65.2853 51.233 65.2882 51.2312 65.2914C51.2042 65.3422 51.1755 65.3912 51.1449 65.4418C51.1144 65.4909 51.0821 65.5415 51.0483 65.5903C51.0483 65.5919 51.0463 65.5935 51.0445 65.5949C51.0102 65.6469 50.9726 65.6973 50.9332 65.7475C50.8956 65.7995 50.8545 65.8495 50.8115 65.8997C50.6434 66.1018 50.4468 66.2997 50.2277 66.4934C50.1723 66.5431 50.117 66.5911 50.0583 66.639C49.9516 66.7288 49.8395 66.8186 49.7223 66.9064C49.5189 67.0598 49.3031 67.2112 49.075 67.3605C48.9618 67.4344 48.8454 67.5066 48.7269 67.5803C48.5975 67.6598 48.4648 67.7392 48.3283 67.8184C48.2192 67.8798 48.1083 67.9428 47.9957 68.0056C47.9939 68.0056 47.9921 68.0054 47.9919 68.007C47.8649 68.0756 47.7361 68.1441 47.6071 68.2126C47.542 68.2461 47.4766 68.2796 47.4112 68.3129C47.3458 68.3479 47.2804 68.3812 47.2135 68.4131C47.1481 68.4466 47.0812 68.4783 47.0142 68.5117C46.7478 68.6421 46.4782 68.7691 46.205 68.8914C46.1381 68.9218 46.0693 68.9519 46.0008 68.982C45.9321 69.0137 45.8616 69.0454 45.7911 69.0754C45.6574 69.1327 45.5219 69.1913 45.3882 69.2471C45.3196 69.2756 45.2509 69.3042 45.1842 69.3329C45.1156 69.3615 45.0469 69.3885 44.9801 69.4156C44.9169 69.4412 44.8519 69.4668 44.7887 69.494C44.7056 69.5267 44.6227 69.5594 44.5414 69.5921C44.2942 69.6886 44.0508 69.7821 43.811 69.8711C43.692 69.9164 43.5731 69.9601 43.4559 70.0025C43.4163 70.0165 43.3785 70.0306 43.3407 70.0448C43.2344 70.0828 43.128 70.1208 43.0237 70.1573C42.8634 70.2134 42.7066 70.2681 42.5554 70.3215C42.4835 70.3451 42.4132 70.369 42.3431 70.3928C42.3088 70.404 42.2745 70.4166 42.2405 70.4279C42.1018 70.4739 41.9687 70.5186 41.8391 70.562C40.9685 70.8461 40.3092 71.0369 40.0363 71.1136C40.0184 71.1191 40.002 71.1248 39.9876 71.1287C39.9284 71.1451 39.8961 71.1531 39.8961 71.1531C39.7387 71.9379 39.6794 72.7504 39.679 73.5576C39.6788 73.608 39.6783 73.6614 39.6794 73.7165C39.679 73.7701 39.68 73.8268 39.683 73.8851C39.6842 73.9434 39.6852 74.0033 39.6897 74.0647C39.6936 74.1813 39.7009 74.3044 39.7096 74.4338C39.7206 74.5915 39.735 74.7589 39.7505 74.9328C39.7602 75.0401 39.7714 75.1508 39.7826 75.2646C39.8015 75.4463 39.822 75.6344 39.8456 75.829C39.8651 75.9966 39.8882 76.1691 39.9091 76.3445C39.9504 76.6657 39.9967 76.9981 40.0479 77.34C40.0575 77.4081 40.0688 77.4763 40.0782 77.5458C40.0991 77.6821 40.1198 77.8197 40.1406 77.9576C40.1723 78.1712 40.206 78.3867 40.2413 78.6021C40.2738 78.7986 40.3061 78.9981 40.3386 79.1978C40.3415 79.2138 40.3443 79.2295 40.3472 79.2455C40.3937 79.5306 42.5597 95.4843 42.6097 95.7712C42.6849 96.2149 42.7639 96.6572 42.8447 97.095C42.8576 97.1678 42.8704 97.2393 42.8834 97.3122C42.9179 97.5024 42.9526 97.6911 42.9872 97.8783C43.0046 97.9719 43.0219 98.067 43.0392 98.1605C43.0695 98.3256 43.1001 98.4872 43.1322 98.6475C43.145 98.7236 43.1593 98.7998 43.1741 98.8742C43.1857 98.9345 43.1973 98.9947 43.2074 99.0534C43.2556 99.2994 43.3021 99.5404 43.3472 99.7751C43.35 99.7927 43.3529 99.8084 43.3575 99.826C43.3777 99.9354 43.3996 100.045 43.4201 100.151C43.4581 100.343 43.4947 100.529 43.5313 100.708C43.5514 100.817 43.5737 100.925 43.594 101.03C43.5969 101.043 43.5983 101.055 43.6012 101.068C43.616 101.141 43.6306 101.214 43.6454 101.284C43.6497 101.308 43.654 101.331 43.6584 101.354C43.6645 101.376 43.669 101.395 43.6719 101.411C43.6749 101.425 43.6779 101.441 43.6806 101.455C43.682 101.466 43.6834 101.476 43.6865 101.485C43.7379 101.738 43.7848 101.973 43.8273 102.184C43.8419 102.258 43.8567 102.328 43.8716 102.396C43.8925 102.493 43.9098 102.585 43.9274 102.671C43.9335 102.695 43.9378 102.719 43.9421 102.742C44.0012 103.022 44.0439 103.231 44.0689 103.352C44.0737 103.368 44.0764 103.384 44.0796 103.396C44.0898 103.449 44.0957 103.476 44.0957 103.476C42.3817 105.955 35.361 107.004 30.2342 105.182C29.8317 101.693 29.5221 98.1034 29.2919 94.9847C28.9154 89.8301 26.6363 70.2969 26.6363 70.2969L21.0361 65.6986C20.2126 63.4359 19.9802 57.7682 19.9369 53.2097C20.0241 56.5191 21.2675 62.6969 21.2675 62.6969C21.2675 62.6969 25.4091 65.7906 33.0676 66.4007C40.7279 67.0123 48.9573 63.5982 48.9573 63.5982C50.36 58.2843 45.4709 53.1483 45.4709 53.1483L48.0022 52.9121L48.742 49.8864C48.742 49.8864 47.064 45.259 47.2202 44.2491C47.6934 45.8992 50.3238 47.4689 50.909 47.4779C51.4781 47.4862 54.643 44.4764 54.8427 44.2834C53.898 46.5642 53.0006 48.9476 52.8633 50.3092Z" fill="#D87290"/>
<path opacity="0.3" fill-rule="evenodd" clip-rule="evenodd" d="M38.1953 44.1493L33.6809 43.9585C33.8384 43.7149 36.1021 43.1723 36.1021 43.1723L37.0556 39.7554L37.5566 33.066C37.9479 39.2141 38.1953 44.1493 38.1953 44.1493Z" fill="#D87290"/>
<defs>
<linearGradient id="paint0_linear_20_23228" x1="-26.4843" y1="107.078" x2="85.1316" y2="22.7303" gradientUnits="userSpaceOnUse">
<stop stop-color="#CCCCD1"/>
<stop offset="0.968" stop-color="#F7F7FC"/>
</linearGradient>
<radialGradient id="paint1_radial_20_23228" cx="0" cy="0" r="1" gradientUnits="userSpaceOnUse" gradientTransform="translate(-36.733 49.0287) rotate(90) scale(192.895 192.895)">
<stop offset="0.0056" stop-color="#E7E5F0"/>
<stop offset="0.1686" stop-color="#E3E0EC"/>
<stop offset="0.3681" stop-color="#D7D1E2"/>
<stop offset="0.5868" stop-color="#C3B8D0"/>
<stop offset="0.8175" stop-color="#A896B7"/>
<stop offset="1" stop-color="#8E75A0"/>
</radialGradient>
<linearGradient id="paint2_linear_20_23228" x1="34.5075" y1="118.299" x2="38.9868" y2="12.25" gradientUnits="userSpaceOnUse">
<stop offset="0.016" stop-color="#FFB880"/>
<stop offset="1" stop-color="#FF8777"/>
</linearGradient>
<linearGradient id="paint3_linear_20_23228" x1="39.9445" y1="61.5464" x2="56.4048" y2="46.4203" gradientUnits="userSpaceOnUse">
<stop stop-color="#FF8777"/>
<stop offset="0.984" stop-color="#FFB880"/>
</linearGradient>
<linearGradient id="paint4_linear_20_23228" x1="21.4102" y1="46.7911" x2="22.3494" y2="24.5562" gradientUnits="userSpaceOnUse">
<stop stop-color="#FF8777"/>
<stop offset="0.984" stop-color="#FFB880"/>
</linearGradient>
<linearGradient id="paint5_linear_20_23228" x1="32.1243" y1="43.9526" x2="33.5002" y2="11.3768" gradientUnits="userSpaceOnUse">
<stop stop-color="#FF8777"/>
<stop offset="0.984" stop-color="#FFB880"/>
</linearGradient>
<linearGradient id="paint6_linear_20_23228" x1="41.7476" y1="45.2278" x2="42.9387" y2="17.0276" gradientUnits="userSpaceOnUse">
<stop stop-color="#FF8777"/>
<stop offset="0.984" stop-color="#FFB880"/>
</linearGradient>
<linearGradient id="paint7_linear_20_23228" x1="45.4008" y1="28.081" x2="45.4152" y2="27.7402" gradientUnits="userSpaceOnUse">
<stop offset="0.0056" stop-color="#B060F4"/>
<stop offset="1" stop-color="#FFEADB"/>
</linearGradient>
<linearGradient id="paint8_linear_20_23228" x1="26.9072" y1="22.7743" x2="26.9184" y2="22.5109" gradientUnits="userSpaceOnUse">
<stop stop-color="#FFEADB"/>
<stop offset="0.9944" stop-color="#B060F4"/>
</linearGradient>
</defs>
</svg>
