<svg width="74" height="117" viewBox="0 0 74 117" fill="none" xmlns="http://www.w3.org/2000/svg">
<path d="M67.4732 115.483H5.94662C2.66221 115.483 0 112.795 0 109.479V6.00381C0 2.68781 2.66221 0 5.94662 0H67.463C68.177 0.0205963 69.554 0.154467 70.8698 1.0813C71.0024 1.17398 71.3288 1.41084 71.6756 1.76098C73.0628 3.18212 73.3484 5.10788 73.4198 6.00381V109.469C73.4198 112.795 70.7576 115.483 67.4732 115.483Z" fill="white"/>
<path d="M67.4825 116.248H5.94744C2.66258 116.248 0 113.552 0 110.227V6.78633C0 3.46055 2.66258 0.764801 5.94744 0.764801H67.4723C68.0028 0.764801 68.9414 0.83709 69.9819 1.32253C70.2268 1.43614 70.9817 1.80798 71.6754 2.53097C73.2158 4.10091 73.3892 6.16662 73.4198 6.78633V110.216C73.43 113.552 70.7674 116.248 67.4825 116.248Z" fill="url(#paint0_linear_20_23180)"/>
<path opacity="0.8" d="M14.3628 75.8437C15.5195 77.694 18.4531 80.8694 18.9521 82.7727C19.1876 83.67 18.9174 90.0101 18.6575 96.6495H41.2316C40.4774 90.6599 40.037 85.0233 41.2247 83.6385C43.9322 80.4825 59.2563 72.2825 59.4346 69.4455C59.6132 66.6084 59.9134 60.8829 60.4689 56.5593C61.0243 52.2358 62.2731 47.3603 60.4677 45.3533C58.6622 43.3466 51.5942 41.1739 50.656 40.5862C49.7178 39.9983 48.8405 30.8608 44.0923 30.5566C39.3441 30.2524 36.7285 34.0407 35.9403 34.207C35.1521 34.3732 33.3649 33.4419 30.8259 34.134C28.2866 34.8264 27.1964 37.3095 24.9703 37.8344C18.574 39.3431 18.4378 43.0878 17.5324 44.3568C16.6269 45.6258 12.8303 46.3605 11.7285 48.8303C10.627 51.3003 9.72055 54.3617 10.8615 58.5784C12.0026 62.795 13.2061 73.9934 14.3628 75.8437Z" fill="url(#paint1_radial_20_23180)"/>
<path d="M12.6695 47.7985C12.6732 47.9406 12.6798 48.0965 12.6887 48.2527L12.6904 48.2879C12.7015 48.4763 12.7153 48.6621 12.7323 48.8473C12.7427 48.9549 12.7528 49.0576 12.7626 49.1542L12.7702 49.2236C12.8027 49.5537 12.8459 49.8857 12.9018 50.2385C13.2116 52.3242 13.7439 53.9497 13.9259 54.4679C13.9321 54.4883 13.9378 54.5078 13.9437 54.5263C14.1671 56.0229 15.876 67.3028 17.1711 70.8031C17.3088 71.1842 17.4546 71.4987 17.613 71.7541C18.3288 72.9261 19.4443 74.1077 20.4281 75.1503C21.0407 75.7993 21.9533 76.7661 22.1577 77.1696C22.2511 78.0455 22.1927 82.1771 22.1363 86.1765C22.0895 89.4894 22.0378 93.1678 22.0326 96.6487H43.5138C42.6071 87.8866 42.0012 80.3391 42.2337 78.875C43.4 76.888 50.7931 71.8556 55.8176 68.8255C59.8106 66.9821 62.5942 63.5591 62.8878 61.4289C63.0048 60.5903 62.9444 58.6648 62.8365 55.5928L62.8015 54.5876C62.7449 52.939 62.6865 50.889 62.7417 49.6535C62.807 48.1315 63.173 46.2519 63.4673 44.742C63.8176 42.9444 63.9957 41.9739 63.8987 41.2712C63.8376 40.8229 63.6683 40.3303 63.3966 39.8081C62.8959 38.6957 62.2634 37.8979 61.5136 37.4327C61.3136 37.2644 61.1182 37.1238 60.931 37.0132C60.4473 36.7262 59.5246 36.443 57.0125 35.7065C55.7784 35.3447 54.4139 34.9449 53.1077 34.5279C53.0614 33.936 53.0141 33.4944 52.9651 33.1902C52.519 30.4162 49.4953 26.2838 47.3871 25.5668C45.2446 24.8382 40.6336 26.0882 38.7311 27.9134C38.4752 28.159 38.2624 28.4324 38.086 28.7105C37.4572 28.4375 36.6651 28.1814 35.7 28.0225C35.0246 27.9114 34.2857 27.922 33.5031 28.054C30.0629 28.4905 28.5754 30.6389 28.2542 31.1751C28.1303 31.362 28.0217 31.5527 27.9286 31.7463C26.5667 31.9554 24.2361 32.496 22.2476 33.8683C20.5193 34.9614 19.8815 36.0984 19.6623 36.6375C19.6505 36.6577 19.6387 36.6782 19.6274 36.6991L19.4899 37.0324C19.4598 37.1378 19.2559 37.9068 19.2929 39.1844C14.2311 41.1636 13.1895 44.0213 13.0089 44.7001C12.9572 44.8602 12.9165 45.0095 12.8843 45.1548C12.7988 45.5408 12.7367 45.963 12.7005 46.409L12.7254 46.411L12.672 46.4184C12.6614 46.6903 12.6574 46.9625 12.6599 47.2278C12.6579 47.4073 12.6619 47.5669 12.6658 47.7216L12.6695 47.7985ZM56.1797 68.5646C56.0908 68.6496 55.9925 68.721 55.8888 68.7819L55.8393 68.6999L56.1797 68.5646ZM55.1053 68.9915L55.7528 68.8555C55.5474 68.9499 55.3218 68.9991 55.0893 68.9979L55.1053 68.9915Z" fill="white"/>
<path d="M52.0273 47.6103C52.0273 47.6103 51.763 35.6959 51.4007 33.4426C51.0384 31.1894 48.3292 27.5619 46.8769 27.0678C45.4247 26.5739 41.3878 27.5617 39.8284 29.0578C39.0816 29.7743 38.854 31.0155 38.854 31.0155C38.854 31.0155 37.804 29.9755 35.4431 29.5871C33.0822 29.1987 29.4293 30.9214 29.1207 33.2044C29.1207 33.2044 23.2003 33.5145 21.0143 37.4669C21.0143 37.4669 20.7237 38.4881 20.9744 40.2665C20.9744 40.2665 15.1905 42.0774 14.4318 45.4977C13.6732 48.9182 15.492 54.1501 15.492 54.1501C15.492 54.1501 22.155 57.0847 35.2743 55.2994C48.3937 53.5139 52.0273 47.6103 52.0273 47.6103Z" fill="url(#paint2_linear_20_23180)"/>
<path d="M18.96 70.9204C20.2722 73.0685 23.3102 75.4784 23.6917 76.7452C23.9476 77.6087 23.6309 87.7361 23.6178 96.6495H41.9245C41.1282 88.9813 40.3026 79.8349 40.7228 78.3676C40.7228 78.3676 40.7228 78.3553 40.7358 78.3304C41.5598 75.7195 51.3073 69.1516 55.0725 67.4254C55.0786 67.4254 55.0789 67.4193 55.085 67.4195C55.0914 67.4134 55.0976 67.4134 55.0976 67.4134C58.8689 65.6936 61.1231 62.6285 61.318 61.2137C61.4362 60.3661 61.315 57.4793 61.218 54.643C61.1517 52.7186 61.1039 50.8134 61.1589 49.584C61.2897 46.5383 62.471 42.5151 62.3293 41.4889C62.188 40.4566 60.9493 38.8654 60.1256 38.379C59.4568 37.9824 55.0951 36.8775 51.6022 35.7035C50.8066 35.4424 50.061 35.1757 49.4092 34.9104C45.8764 33.4801 41.9763 31.1014 41.3024 31.0482C41.0777 31.0325 40.7119 31.2896 40.3376 31.7152C40.3311 31.7214 40.3183 31.7337 40.306 31.746C39.9127 32.1837 39.5107 32.7901 39.2139 33.4414C39.2139 33.4476 39.2075 33.4601 39.2072 33.4663C38.9363 34.0744 38.7648 34.7215 38.7937 35.3151C38.7937 35.3151 38.805 35.3964 38.8217 35.5466C39.1727 37.6373 42.9115 43.0296 49.1954 44.2181L51.9246 43.7636L52.0436 43.7466C52.0436 43.7466 52.3527 47.0231 52.0261 47.6118C52.0197 47.6241 52.0133 47.6367 52.0007 47.6426C51.3672 48.2768 42.2391 50.3636 35.2748 55.2977C35.2748 55.2977 22.9956 55.8911 17.4974 54.7886C17.4787 54.7883 17.4662 54.7881 17.4538 54.7817C16.993 54.6876 16.5824 54.5881 16.2282 54.4644C16.1846 54.4514 16.1474 54.4322 16.1041 54.4189C15.8866 54.3469 15.6942 54.2632 15.5331 54.1671C15.5144 54.1607 15.5021 54.1543 15.4897 54.1479C15.4897 54.1479 17.3408 66.6946 18.6576 70.2541C18.7593 70.5366 18.8623 70.7627 18.96 70.9204Z" fill="url(#paint3_linear_20_23180)"/>
<path opacity="0.31" d="M14.2559 46.4807C14.2461 46.7302 14.2424 46.9864 14.2453 47.2298C14.2431 47.3921 14.247 47.5421 14.2512 47.6982C14.2591 48.0231 14.2796 48.348 14.3062 48.6606C14.317 48.7731 14.3278 48.8857 14.3389 48.9921C14.3714 49.3424 14.4165 49.6739 14.4682 49.9993C14.7589 51.958 15.2614 53.495 15.4355 53.9846C15.4651 54.0913 15.4892 54.1479 15.4892 54.1479C15.5015 54.1543 15.5141 54.1607 15.5328 54.1672C15.7064 54.2571 15.8988 54.341 16.1038 54.4189C16.1474 54.4319 16.1845 54.4511 16.2281 54.4644C21.315 56.3978 33.5841 56.4975 33.5841 56.4975L30.7515 59.8294C30.7515 59.8294 35.6529 56.8017 41.0614 54.1125C43.4829 52.9043 46.0029 51.7725 48.2308 51.0047C50.4021 50.2614 52.2935 49.8697 53.5517 50.1C58.989 51.0954 61.2177 54.6428 61.2177 54.6428C61.1514 52.7183 61.1036 50.8131 61.1586 49.5838C61.2894 46.5381 62.4707 42.5148 62.329 41.4887C61.0834 43.0072 52.2206 42.8606 51.1134 42.4899C45.9327 40.7544 40.5035 34.0781 40.484 32.8163C40.4634 31.6295 41.2013 31.1155 41.2959 31.0544C40.9249 31.2302 40.6097 31.4569 40.3372 31.7152C40.3308 31.7214 40.3183 31.7337 40.3055 31.746C39.7862 32.2507 39.4402 32.864 39.2136 33.4414C39.2136 33.4476 39.2069 33.4601 39.2069 33.4663C38.8244 34.4537 38.7933 35.3151 38.7933 35.3151C38.7933 35.3151 38.8047 35.3964 38.8212 35.5466C38.832 35.6654 38.8483 35.8343 38.8643 36.0343C39.0741 38.4041 39.6616 45.8186 38.63 46.778C37.4024 47.9157 29.8571 48.0455 29.3995 46.8526C28.9418 45.6659 29.1192 33.2042 29.1192 33.2042C28.6221 36.9753 28.7177 46.9366 28.5911 47.4968C28.4645 48.0571 22.8328 48.8635 22.2286 47.8746C21.6547 46.9549 21.0576 41.0764 20.9807 40.3446C21.1042 43.9619 21.65 49.4838 21.65 49.4838C20.6963 50.2382 16.5749 50.2234 16.0872 49.8417C15.6365 49.4919 14.4675 46.946 14.2796 46.5374C14.2621 46.4994 14.2559 46.4807 14.2559 46.4807Z" fill="#D87290"/>
<path opacity="0.97" d="M49.4092 34.9104C49.4092 34.9104 49.6211 35.3498 49.3974 35.7412C49.1735 36.1324 44.8655 36.1166 42.8994 34.9781C40.9336 33.8397 41.7521 31.1931 41.7521 31.1931L49.4092 34.9104Z" fill="#F5AF8F"/>
<path opacity="0.5" d="M55.5813 43.1451L51.9246 43.7636L51.948 44.6563C51.948 44.6563 52.7647 44.2883 55.5813 43.1451Z" fill="#D87290"/>
<path opacity="0.3" d="M16.5297 53.457L15.4895 54.1479C15.4895 54.1479 25.1223 56.9702 33.5841 56.4975C33.5841 56.4975 48.9183 50.0966 52.0261 47.6118L52.0435 43.7466C52.0435 43.7466 49.7462 44.1449 49.1954 44.2181C48.6449 44.2915 47.1343 43.8077 47.1343 43.8077C47.1343 43.8077 46.1734 45.9484 44.9066 46.3238C44.3862 46.4787 43.5992 46.4861 42.8258 46.4253C41.7154 46.3346 40.6262 46.0943 40.3792 45.9034C39.9466 45.5851 39.5309 41.4515 39.5309 41.4515C39.5309 41.4515 39.7264 50.0781 39.3969 50.8602C39.0735 51.6486 31.9316 54.5819 30.5799 52.5893C30.5799 52.5893 26.2669 53.758 24.8954 53.1639C23.5237 52.5701 23.0259 51.139 23.0259 51.139C23.0259 51.139 22.8003 53.3839 21.0591 53.7588C19.3179 54.1272 17.7898 53.5499 17.1253 52.8723C17.0637 52.809 16.9962 52.7267 16.9225 52.6257C16.2302 51.6917 14.9966 49.3012 14.8326 48.9741L16.0242 52.1196L16.5297 53.457Z" fill="#D87290"/>
<path opacity="0.3" d="M41.9242 96.6495C41.1279 88.9813 40.3023 79.8349 40.7225 78.3676C41.471 75.7806 51.3073 69.1452 55.0847 67.4193C54.5456 67.5678 37.2992 72.3116 36.1182 73.6875C35.274 74.6715 35.5925 86.5955 38.2741 96.6495H41.9242Z" fill="#D87290"/>
<path opacity="0.6" d="M23.6917 76.7452C23.9476 77.6087 23.6308 87.7361 23.6178 96.6495H41.9245C41.1282 88.9813 40.3025 79.8349 40.7227 78.3676C40.7227 78.3676 40.7227 78.3553 40.7358 78.3304C40.7417 78.3115 40.7528 78.2905 40.7597 78.2713C41.0119 77.6765 42.8836 74.3155 55.0724 67.4254C54.6148 67.5626 39.8003 72.1039 32.1028 73.2805C24.274 74.468 18.6575 70.2541 18.6575 70.2541C18.7598 70.5366 18.8627 70.7627 18.9603 70.9204C20.2721 73.0684 23.3101 75.4784 23.6917 76.7452Z" fill="#F3BAC0"/>
<path d="M49.4093 34.9104C49.4093 34.9104 49.4859 35.841 47.342 35.9663C44.737 36.1186 42.6502 34.8143 42.6502 34.8143C42.6502 34.8143 44.7357 36.5277 48.4546 36.0779C52.1734 35.6277 49.4093 34.9104 49.4093 34.9104Z" fill="#E86C7C"/>
<path opacity="0.97" d="M42.6956 31.651C42.6956 31.651 41.867 32.7389 42.6505 34.8141C42.6505 34.8141 41.0044 33.9803 41.7522 31.1931L42.6956 31.651Z" fill="#F5D3D2"/>
<path opacity="0.97" d="M48.2105 34.3284C48.2105 34.3284 48.0986 35.1131 48.7935 35.6545C48.7935 35.6545 49.3797 35.356 49.4093 34.9104L48.2105 34.3284Z" fill="#F5D3D2"/>
<path opacity="0.5" d="M14.2559 46.4807C14.2461 46.7302 14.2424 46.9864 14.2453 47.2298C14.2431 47.3921 14.247 47.5421 14.2512 47.6982C14.2591 48.0231 14.2796 48.348 14.3062 48.6606C14.317 48.7732 14.3278 48.8857 14.3389 48.9921C14.3714 49.3424 14.4165 49.6739 14.4682 49.9993C14.7589 51.958 15.2614 53.495 15.4355 53.9846C15.4651 54.0913 15.4892 54.148 15.4892 54.148C15.5015 54.1544 15.5141 54.1608 15.5328 54.1672C15.7064 54.2571 15.8988 54.3411 16.1038 54.4189C16.1474 54.4319 16.1845 54.4512 16.2281 54.4645C21.315 56.3978 33.5841 56.4975 33.5841 56.4975L52.026 47.6118L52.0435 43.7466C52.0435 43.7466 49.7639 44.2137 48.6717 44.1545C47.5798 44.0952 42.2885 42.4838 38.8648 36.0343C39.0746 38.4041 39.6621 45.8186 38.6305 46.778C37.4029 47.9157 29.8576 48.0456 29.4 46.8527C28.9423 45.6659 29.1197 33.2042 29.1197 33.2042C28.6226 36.9753 28.7182 46.9367 28.5916 47.4968C28.465 48.0571 22.8333 48.8636 22.2291 47.8746C21.6551 46.9549 21.0581 41.0764 20.9812 40.3446C21.1046 43.9619 21.6505 49.4838 21.6505 49.4838C20.6967 50.2382 16.5754 50.2235 16.0877 49.8417C15.637 49.4919 14.468 46.946 14.28 46.5374C14.2621 46.4994 14.2559 46.4807 14.2559 46.4807Z" fill="#D87290"/>
<path opacity="0.5" d="M49.062 34.7417L49.4677 30.812L49.783 33.4981L50.8062 33.6687L51.2121 35.5732L49.062 34.7417Z" fill="#D87290"/>
<path opacity="0.5" d="M31.4981 53.2141C31.4981 53.2141 29.9254 49.4608 29.4003 46.8524C28.8752 44.2439 28.7678 39.244 28.7678 39.244C28.7678 39.244 28.5217 46.1674 28.5919 47.4965C28.6621 48.8256 30.5804 52.5897 30.5804 52.5897C30.5804 52.5897 31.0287 52.9415 31.4981 53.2141Z" fill="#D87290"/>
<path opacity="0.5" d="M23.0284 51.1414C23.0284 51.1414 22.4186 49.2192 22.0304 47.3709C21.6422 45.5223 20.9744 40.2665 20.9744 40.2665C20.9744 40.2665 21.5702 48.181 21.8139 49.1722C22.0577 50.1631 23.0284 51.1414 23.0284 51.1414Z" fill="#D87290"/>
<path opacity="0.5" d="M47.1328 43.8062C47.1328 43.8062 41.7031 41.8912 38.8648 36.0341C38.8648 36.0341 41.4031 43.1208 46.1628 45.3775L47.1328 43.8062Z" fill="#D87290"/>
<path opacity="0.5" d="M38.8649 36.0341C38.8649 36.0341 39.2444 33.6281 40.5327 33.053C40.5327 33.053 40.2927 32.1083 41.2962 31.0541C41.2962 31.0541 38.5971 32.2919 38.8649 36.0341Z" fill="#D87290"/>
<path opacity="0.97" d="M60.5872 38.7273C60.5872 38.7273 58.8265 39.3884 58.7679 40.9369C58.7093 42.4855 62.3293 41.4884 62.3293 41.4884C62.3293 41.4884 61.765 39.363 60.5872 38.7273Z" fill="#F5AF8F"/>
<path opacity="0.97" d="M46.8772 27.0678C46.8772 27.0678 44.7788 28.3395 42.7334 28.9809C40.6883 29.6223 39.8287 29.058 39.8287 29.058C39.8287 29.058 42.9803 26.5392 46.8772 27.0678Z" fill="#F5EE8F"/>
<path opacity="0.97" d="M28.766 33.2355C28.766 33.2355 27.5839 34.504 25.1984 35.8405C22.8131 37.177 21.0992 37.3211 21.0992 37.3211C21.0992 37.3211 21.8468 34.4941 28.766 33.2355Z" fill="#F5EE8F"/>
<path opacity="0.97" d="M35.4434 29.5871C35.4434 29.5871 33.447 30.6137 31.8097 31.3298C30.1727 32.046 29.5961 32.0212 29.5961 32.0212C29.5961 32.0212 31.0405 29.2679 35.4434 29.5871Z" fill="#F5EE8F"/>
<path opacity="0.97" d="M20.9746 40.2665C20.9746 40.2665 19.4159 41.0773 17.3646 42.4237C16.0183 43.3075 14.5338 45.1358 14.5338 45.1358C14.5338 45.1358 15.1503 42.1456 20.9746 40.2665Z" fill="#F5EE8F"/>
<path opacity="0.5" d="M40.7595 78.2711C40.7595 78.2711 37.0877 77.7213 36.1185 73.6874L55.0725 67.4254C55.0725 67.4254 42.3576 75.0786 40.7595 78.2711Z" fill="#D87290"/>
<path d="M52.0261 47.6115C52.0261 47.6115 50.127 45.5321 49.2642 45.1058C48.4011 44.6794 46.6271 44.6252 46.6271 44.6252L47.1328 43.806C47.1328 43.806 48.4447 44.2469 49.1954 44.2178C49.9462 44.1888 52.0436 43.7464 52.0436 43.7464C52.0436 43.7464 52.3293 46.9861 52.0261 47.6115Z" fill="#AB3D52"/>
<path d="M17.125 52.8723C17.125 52.8723 17.7201 54.498 23.621 54.5009C29.5283 54.51 37.6857 52.6957 38.8582 51.9255C39.8414 51.2838 41.9447 47.7677 42.8258 46.4251C41.7154 46.3344 40.6262 46.094 40.3792 45.9031C39.9466 45.5849 39.5308 41.4513 39.5308 41.4513C39.5308 41.4513 39.7264 50.0779 39.3968 50.8599C39.0734 51.6484 31.9316 54.5817 30.5798 52.589C30.5798 52.589 26.2669 53.7578 24.8954 53.1637C23.5237 52.5698 23.0259 51.1388 23.0259 51.1388C23.0259 51.1388 22.8003 53.3836 21.0591 53.7585C19.3177 54.1275 17.7898 53.5499 17.125 52.8723Z" fill="#AB3D52"/>
<path d="M14.8326 48.9742L16.0242 52.1196L16.9225 52.6257C16.2302 51.6917 14.9966 49.3013 14.8326 48.9742Z" fill="#AB3D52"/>
<path opacity="0.97" d="M18.6827 68.4725C18.6827 68.4725 16.8029 61.0307 15.8179 55.0026C15.8179 55.0026 18.7246 61.5514 18.6827 68.4725Z" fill="#F5FFFF"/>
<path opacity="0.97" d="M25.2036 96.6495C24.8435 91.6641 24.4755 85.7201 24.4107 81.4901C24.4107 81.4901 23.9353 89.2271 23.994 96.6495H25.2036Z" fill="#F5FFFF"/>
<path opacity="0.97" d="M60.2556 61.7876C60.2556 61.7876 59.1901 65.3022 55.5422 66.67C51.8943 68.038 43.2258 70.2255 43.2258 70.2255C43.2258 70.2255 56.743 66.8057 60.2556 61.7876Z" fill="#F5FFFF"/>
<path opacity="0.97" d="M21.7875 38.5819C21.7875 38.5819 21.7494 44.0267 22.4932 47.1911C22.4932 47.1911 20.8432 43.9718 21.7875 38.5819Z" fill="#F5FFFF"/>
<path opacity="0.97" d="M15.6205 44.9427C15.6205 44.9427 15.4237 47.8763 16.4227 49.7254C16.4227 49.7254 14.3988 47.4692 15.6205 44.9427Z" fill="#F5FFFF"/>
<path opacity="0.97" d="M30.2747 33.2204C30.2747 33.2204 29.2823 39.9197 30.0953 45.8191C30.0953 45.8191 28.0697 39.2228 30.2747 33.2204Z" fill="#F5FFFF"/>
<path opacity="0.97" d="M59.7756 38.7157C59.7756 38.7157 56.7814 37.0982 53.4438 36.7551C53.4438 36.7551 56.0479 38.7586 59.7756 38.7157Z" fill="#F5FFFF"/>
<path opacity="0.97" d="M61.7562 42.9668C61.7562 42.9668 60.4522 45.2087 60.2093 47.728C59.9665 50.2473 60.8357 55.6729 60.8357 55.6729C60.8357 55.6729 60.6756 46.4122 61.7562 42.9668Z" fill="#F5FFFF"/>
<path opacity="0.97" d="M41.5125 96.6495C40.2758 86.2058 39.2585 79.8874 39.2585 79.8874C38.7385 84.4075 39.562 91.0705 40.5268 96.6495H41.5125Z" fill="#F5FFFF"/>
<path opacity="0.97" d="M39.0105 49.3185C38.7753 50.3611 35.5335 52.91 33.1497 52.1284C33.1497 52.1284 36.1249 50.9222 37.4341 50.3784C38.7435 49.8347 39.0105 49.3185 39.0105 49.3185Z" fill="#F5A995"/>
<path opacity="0.97" d="M29.5333 52.2102C29.5333 52.2102 24.608 53.6905 23.4622 51.1476C23.4622 51.1476 26.8948 52.7939 29.5333 52.2102Z" fill="#F5A995"/>
<path opacity="0.97" d="M19.4534 53.6127C19.4534 53.6127 17.5873 52.3252 16.9277 52.2501C16.9277 52.2501 17.6206 53.6093 19.4534 53.6127Z" fill="#F5A995"/>
<path opacity="0.3" d="M38.2547 47.0137C38.2547 47.0137 36.4145 48.2854 33.4285 48.3613C30.4422 48.4372 29.4003 46.8526 29.4003 46.8526C29.4003 46.8526 33.5125 48.5766 38.2547 47.0137Z" fill="#D87290"/>
<path opacity="0.3" d="M28.0976 47.7941C28.0976 47.7941 27.2695 48.9833 25.549 49.3138C23.8287 49.6444 22.4804 48.0847 22.4804 48.0847C22.4804 48.0847 25.1657 48.9175 28.0976 47.7941Z" fill="#D87290"/>
<path opacity="0.3" d="M21.3805 49.7958C21.3805 49.7958 20.53 50.7153 19.2265 50.8478C17.9231 50.9801 16.4191 49.9645 16.4191 49.9645C16.4191 49.9645 18.0073 50.5259 21.3805 49.7958Z" fill="#D87290"/>
<defs>
<linearGradient id="paint0_linear_20_23180" x1="-23.7255" y1="110.094" x2="87.0647" y2="17.844" gradientUnits="userSpaceOnUse">
<stop stop-color="#CCCCD1"/>
<stop offset="0.968" stop-color="#F7F7FC"/>
</linearGradient>
<radialGradient id="paint1_radial_20_23180" cx="0" cy="0" r="1" gradientUnits="userSpaceOnUse" gradientTransform="translate(31.8596 -29.528) scale(268.475 268.475)">
<stop offset="0.0056" stop-color="#E7E5F0"/>
<stop offset="0.1686" stop-color="#E3E0EC"/>
<stop offset="0.3681" stop-color="#D7D1E2"/>
<stop offset="0.5868" stop-color="#C3B8D0"/>
<stop offset="0.8175" stop-color="#A896B7"/>
<stop offset="1" stop-color="#8E75A0"/>
</radialGradient>
<linearGradient id="paint2_linear_20_23180" x1="33.0164" y1="55.9637" x2="33.4312" y2="26.762" gradientUnits="userSpaceOnUse">
<stop stop-color="#FF8777"/>
<stop offset="0.984" stop-color="#FFB880"/>
</linearGradient>
<linearGradient id="paint3_linear_20_23180" x1="38.0437" y1="109.302" x2="39.1554" y2="31.0175" gradientUnits="userSpaceOnUse">
<stop offset="0.016" stop-color="#FFB880"/>
<stop offset="1" stop-color="#FF8777"/>
</linearGradient>
</defs>
</svg>
