<svg width="74" height="117" viewBox="0 0 74 117" fill="none" xmlns="http://www.w3.org/2000/svg">
<path d="M68.0525 116.283H6.52752C3.24266 116.283 0.580078 113.578 0.580078 110.24V6.07891C0.580078 2.74095 3.24266 0.0353394 6.52752 0.0353394H68.0525C68.7665 0.056072 70.1437 0.19083 71.4597 1.1238C71.5923 1.2171 71.9188 1.45552 72.2555 1.80798C73.6428 3.23853 73.9285 5.17704 73.9999 6.07891V110.229C73.9999 113.567 71.3373 116.283 68.0525 116.283Z" fill="white"/>
<path d="M68.0431 116.283H6.5267C3.24229 116.283 0.580078 113.588 0.580078 110.262V6.82166C0.580078 3.49587 3.24229 0.800125 6.5267 0.800125H68.0431C68.5735 0.800125 69.5119 0.872414 70.5523 1.35785C70.7971 1.47147 71.5519 1.8433 72.2557 2.5663C73.7959 4.13623 73.9693 6.20195 73.9999 6.82166V110.262C73.9897 113.588 71.3275 116.283 68.0431 116.283Z" fill="url(#paint0_linear_20_23281)"/>
<path opacity="0.8" d="M36.4742 11.7558C34.6252 13.4431 35.7133 28.0989 35.9896 31.4253C36.2658 34.7518 35.8515 44.584 35.3577 45.2979C34.8638 46.0118 33.2915 45.6936 33.0614 45.0356C32.8314 44.3773 30.0601 34.4089 29.3069 32.7772C28.5538 31.1456 25.8778 17.2922 24.2267 15.9119C22.5756 14.5316 18.5833 15.3487 17.24 20.4756C15.8967 25.6024 23.7194 42.5896 24.8439 47.9984C25.9684 53.4073 21.7201 63.6166 21.7706 65.1086C21.8211 66.6003 23.7523 69.3477 25.9927 71.202C28.2331 73.0564 35.5879 75.0671 36.8286 78.6409C38.0692 82.2144 35.5581 104.813 36.6535 106.917C36.8294 107.255 37.3676 107.648 38.1465 108.027L52.5688 108.027C54.0553 107.428 55.2192 106.795 55.5556 106.393C56.3039 105.499 51.101 78.9533 52.0621 77.7253C53.0234 76.4974 55.9705 76.8773 57.4394 73.578C58.9146 70.2644 59.6256 64.1415 59.989 60.0819C60.3524 56.0223 62.2795 51.7028 62.2129 50.2115C62.1462 48.7199 58.643 45.4339 55.1178 45.6678C54.345 45.7192 54.1307 42.308 52.676 40.9717C51.2214 39.6353 47.5563 39.2417 46.3451 39.7212C45.1336 40.2005 44.4977 40.9255 44.2989 40.7478C44.1001 40.57 45.141 31.7666 45.1905 30.7174C45.2402 29.6681 45.7367 14.7897 44.4521 11.9049C43.1677 9.01969 38.3232 10.0687 36.4742 11.7558Z" fill="url(#paint1_radial_20_23281)"/>
<path d="M33.1838 106.184L32.4281 105.82L32.4789 104.983C32.4803 104.958 32.1915 96.1939 32.3337 92.9369L32.3365 92.8572C32.4488 90.2677 32.5228 87.9099 32.5568 85.8469L32.5504 85.7739L32.5588 85.7108L32.5596 85.6539C32.5899 83.6583 32.5811 81.9659 32.5335 80.6183L32.5247 80.3839C32.4255 77.9153 32.2077 77.3405 32.1766 77.2703C31.4877 76.052 26.3643 72.9829 23.8998 71.5067C22.0698 70.4104 21.0113 69.7705 20.5373 69.3695L20.5279 69.3616C19.0697 68.117 17.5386 65.821 17.1859 64.3527C17.0364 63.7421 17.1585 62.918 17.6202 61.4174C17.8789 60.5667 18.2192 59.5948 18.548 58.6547C19.0108 57.3325 19.4891 55.9655 19.6803 55.098C20.0169 53.5766 20.3146 50.6607 20.4923 48.9184L20.5273 48.5773C18.4948 39.8952 17.5112 36.7176 17.0419 35.5783C16.8575 35.1266 16.6299 34.6303 16.3233 34.0115C16.1004 33.5565 15.8665 33.0966 15.6188 32.6101C13.9479 29.3266 12.0541 25.605 12.2288 20.7992C12.3768 16.6773 14.3911 15.2424 15.5786 14.7536C17.3707 14.016 19.2772 14.5005 20.167 15.336C20.4888 15.6419 20.87 16.1818 21.4739 17.9932L21.6078 18.104L21.636 18.501C22.2479 20.4121 22.8834 22.9094 23.3963 24.9247C23.727 26.2234 24.0124 27.3451 24.1625 27.7925C24.3247 28.2759 24.5437 28.8628 24.7756 29.4841C24.8924 29.7969 25.0128 30.1194 25.1327 30.4462L25.1787 30.5752C25.604 31.7314 26.0936 33.1774 26.2498 34.3759C26.3848 35.4231 27.7354 40.3719 28.9092 44.1627C29.0495 44.1593 29.1927 44.1556 29.3391 44.1521C29.7395 44.1421 30.1624 44.1315 30.6075 44.1202C30.757 41.7974 30.9294 38.4445 31.1116 34.3125L31.1161 34.2467C31.1182 34.2197 31.1208 34.1943 31.1214 34.1702L31.122 34.141C31.1265 33.9899 31.1323 33.8543 31.1392 33.734C31.1429 33.6404 31.1472 33.5565 31.1509 33.4858L31.1537 33.4283C31.1552 33.3261 31.1591 33.2527 31.1613 33.2138C31.239 31.4697 31.2908 30.1548 31.3053 29.7836C31.2611 29.4466 31.2206 29.0998 31.1852 28.7585C30.8243 25.5363 30.691 21.5731 30.8286 18.1568C31.0719 12.1147 31.9613 11.2908 32.3447 10.9355C34.1438 9.28141 38.1505 9.92127 38.9645 10.3554C39.2146 10.4895 39.8001 10.8039 40.5068 12.9052C40.7516 13.6328 41.1737 15.0904 41.2514 16.6742C41.3328 18.2619 41.2403 20.5375 41.159 22.5452C41.1166 23.5898 41.0765 24.5766 41.072 25.2523L41.0714 25.3296C41.0696 25.5515 41.0678 25.7772 41.0622 26.0001C41.0516 26.5574 41.0342 27.1234 41.0172 27.6706C40.9894 28.5734 40.9512 29.81 40.9943 30.0908C41.0876 30.61 40.9927 31.3599 40.7868 32.8717C40.7475 33.1596 40.7064 33.4614 40.6661 33.7706L40.6688 33.8099L40.6524 33.8968L40.3199 39.459C40.7563 39.1054 41.2358 38.8281 41.7561 38.6783C43.1501 38.2787 44.7245 38.6488 45.7958 39.0285C46.9455 39.4316 48.5201 40.216 49.1792 41.108C49.6759 41.7906 50.1992 43.1814 50.537 44.1805C51.2582 44.1711 52.2181 44.2801 53.158 44.7564C55.8109 45.7674 57.3623 48.2054 57.3319 49.9965C57.309 51.6126 55.7368 58.0568 55.4029 59.4081C55.3673 59.5854 55.1565 60.641 54.9172 61.9373L54.8966 62.0395C54.6121 63.6319 54.2359 65.823 54.1539 66.9459C54.0547 68.327 53.6723 70.0769 53.123 71.6785L53.0334 71.9402C52.8018 72.5954 52.5602 73.1598 52.3351 73.571C51.8457 74.4688 50.5938 75.3295 48.8788 76.4476C48.5888 76.6366 48.2285 76.8716 47.9751 77.0484C48.1101 79.5079 49.7374 96.8049 50.5174 103.721L50.6196 104.628L49.7873 105.002C49.3839 105.183 39.8451 109.397 33.1838 106.184Z" fill="white"/>
<path d="M17.4458 33.4614C17.7233 34.0211 17.9793 34.5669 18.1992 35.1056C19.3774 37.9654 21.7144 48.0639 22.8685 53.1933C23.2798 55.0268 23.5401 56.2248 23.5401 56.2248C23.5401 56.2248 27.9459 66.6533 30.389 68.2692C31.9083 69.2732 40.5539 66.396 46.9874 63.5157C50.8838 61.7685 53.97 60.0226 54.1819 59.1349C54.1819 59.1349 56.0589 51.5451 56.081 49.9791C56.1078 48.4074 54.0706 45.1807 49.6536 45.5259L49.6462 45.4958C49.5507 45.1821 48.7716 42.6738 48.1676 41.8438C47.8148 41.3665 46.6805 40.6639 45.3815 40.2085C44.2709 39.815 43.0473 39.6085 42.1 39.8803C40.5297 40.3324 39.3012 42.6438 38.8126 43.7108C38.677 44.0016 38.5952 44.1963 38.5785 44.2435C38.5952 43.9313 39.0369 37.4918 39.2228 35.4035C39.2684 34.87 39.3339 34.3299 39.4001 33.7999C39.3989 33.7847 39.4032 33.7741 39.4075 33.7637C39.4063 33.7485 39.4106 33.7381 39.4102 33.733C39.414 33.7175 39.4132 33.7072 39.4132 33.7072C39.6142 32.1478 39.8437 30.7593 39.7633 30.3118C39.6662 29.7791 39.7776 27.7831 39.8118 25.9766C39.8179 25.7265 39.8195 25.4817 39.8214 25.2421C39.8341 23.2894 40.124 19.1138 40.0024 16.7384C39.886 14.3675 38.8458 11.7112 38.3728 11.457C37.9051 11.2077 34.4847 10.6658 33.1903 11.856C31.9725 12.9842 31.6942 22.0763 32.4273 28.6193C32.4668 28.9984 32.5104 29.3671 32.5584 29.7252C32.5584 29.7252 32.5028 31.1869 32.4093 33.2833C32.4093 33.2833 32.4042 33.35 32.4032 33.4674C32.3993 33.5492 32.3928 33.6618 32.3877 33.7948C32.3809 33.9074 32.3756 34.0352 32.3713 34.1782C32.3709 34.2393 32.3654 34.3009 32.3605 34.3675C32.1286 39.6291 31.7398 47.5526 31.4644 48.1446C31.0491 49.0379 29.9282 49.5063 29.3009 48.9023C28.6739 48.3033 25.2501 36.398 25.0098 34.536C24.873 33.4866 24.4286 32.15 23.9589 30.8816L23.9585 30.8767C23.5971 29.8904 23.2284 28.9403 22.9771 28.1902C22.5671 26.9682 21.4293 21.9191 20.4064 18.7619C20.4056 18.7519 20.3995 18.7369 20.3987 18.7269C20.3932 18.7222 20.3927 18.7171 20.3923 18.7122L20.3915 18.702C20.3856 18.6922 20.3852 18.6873 20.3852 18.6873C19.9899 17.4591 19.6077 16.5305 19.3053 16.2427C18.212 15.216 13.6936 14.8403 13.4782 20.8447C13.2901 26.0153 15.7407 29.9798 17.4458 33.4614Z" fill="url(#paint2_linear_20_23281)"/>
<path opacity="0.5" d="M26.0522 45.4979L26.4381 57.9227L42.6662 63.8482L46.9873 63.5155C50.8837 61.7683 53.9699 60.0224 54.1818 59.1347C54.1818 59.1347 56.0588 51.5449 56.0809 49.9789L53.9407 51.0407L54.199 48.7021L52.9945 50.4662C52.9945 50.4662 52.2671 51.8727 51.9553 51.9936C51.6434 52.1145 46.8313 52.2913 46.2751 49.6994C46.2751 49.6994 48.4341 46.3686 49.6535 45.5257L49.6461 45.4956C49.5506 45.1819 48.7715 42.6736 48.1674 41.8436C48.1674 41.8436 46.6039 45.1642 46.0509 46.7866C45.4976 48.4039 38.9618 47.9031 37.9399 46.3461L38.8123 43.7106L39.407 33.7635C39.4027 33.7741 39.3984 33.7845 39.3996 33.7997C39.2409 34.7191 37.9326 42.2139 37.3649 43.0474C36.7551 43.93 33.1317 43.73 32.5767 42.5446C32.1495 41.6297 32.2829 36.61 32.36 34.3669C32.1281 39.6285 31.7393 47.552 31.4639 48.144C31.0485 49.0372 29.9277 49.5057 29.3003 48.9017C28.6734 48.3027 25.2495 36.3973 25.0093 34.5354C24.8725 33.486 24.4281 32.1494 23.9584 30.881L26.0522 45.4979Z" fill="#D87290"/>
<path opacity="0.31" d="M17.4458 33.4615C17.7233 34.0211 17.9793 34.5669 18.1992 35.1056C19.3774 37.9654 21.7144 48.0639 22.8685 53.1934L34.5598 53.0118C34.5598 53.0118 39.3007 42.6434 38.8122 43.7104C38.6766 44.0012 38.5948 44.1959 38.5781 44.2431C38.5948 43.9309 39.0366 37.4914 39.2224 35.4031C39.268 34.8696 39.3335 34.3295 39.3997 33.7995C39.3985 33.7843 39.4028 33.7737 39.4071 33.7633C39.4059 33.7481 39.4101 33.7377 39.4097 33.7326C39.4136 33.7171 39.4128 33.7068 39.4128 33.7068C39.6138 32.1474 39.8433 30.7589 39.7629 30.3114C39.6658 29.7787 39.7772 27.7827 39.8114 25.9762L39.7443 25.8997C39.7443 25.8997 39.1889 29.7391 38.0276 30.4754C36.871 31.2067 33.7731 31.7028 32.4623 28.682C32.4502 28.6575 32.4386 28.6381 32.4267 28.6184C32.4662 28.9976 32.5098 29.3663 32.5578 29.7243C32.5578 29.7243 32.5022 31.1861 32.4087 33.2825C32.4087 33.2825 32.4036 33.3492 32.4026 33.4666C32.3987 33.5484 32.3922 33.661 32.3871 33.794C32.3803 33.9066 32.375 34.0344 32.3707 34.1774C32.3703 34.2385 32.3648 34.3001 32.3599 34.3667C32.128 39.6283 31.7392 47.5518 31.4638 48.1438C31.0484 49.037 29.9276 49.5055 29.3002 48.9015C28.6733 48.3025 25.2494 36.3971 25.0092 34.5352C24.8724 33.4858 24.428 32.1492 23.9583 30.8807L23.9579 30.8758C23.5965 29.8896 23.2278 28.9395 22.9765 28.1894C22.5665 26.9674 21.4287 21.9182 20.4058 18.7611C20.6109 19.8359 22.9152 31.695 22.4522 32.8977C22.0448 33.9584 19.2345 34.6538 17.4458 33.4615Z" fill="#D87290"/>
<path d="M18.3999 64.0554C18.6848 65.2413 20.0465 67.3073 21.3393 68.4103L21.3448 68.415C22.6585 69.5266 32.0424 74.4555 33.2729 76.6694C34.071 78.101 33.8483 86.8576 33.5857 92.9114L33.5861 92.9165C33.4412 96.2604 33.727 105.058 33.727 105.058C39.9403 108.056 49.2742 103.861 49.2742 103.861C49.2742 103.861 46.5074 76.9395 46.7269 76.4794C46.9516 76.0238 50.6161 74.1109 51.2369 72.9727C51.429 72.6216 51.6449 72.1157 51.8541 71.5239C51.8537 71.5188 51.8537 71.5188 51.8537 71.5188C52.3361 70.172 52.798 68.3631 52.9062 66.8566C52.9931 65.6677 53.3694 63.4728 53.6829 61.7211L53.6872 61.7105C53.9532 60.2682 54.182 59.1347 54.182 59.1347C52.0848 60.7537 41.2808 62.1359 41.2808 62.1359C39.9183 60.921 37.1042 59.4509 34.4851 58.1951C33.8925 57.9094 33.3105 57.6333 32.7557 57.3753C32.7402 57.3714 32.7291 57.362 32.7136 57.3581C30.5261 56.3493 28.8178 55.6044 28.7933 55.4839C28.7407 55.1974 28.6021 52.538 28.6021 52.538C28.6021 52.538 32.334 52.959 34.0542 52.7298C35.7742 52.5006 40.8665 49.2751 40.9303 47.986C40.9763 46.9938 40.6438 45.5212 40.1465 44.8206C40.1293 44.7965 40.1176 44.7771 40.1117 44.7673C40.1117 44.7673 40.1066 44.7677 40.1062 44.7626C40.1062 44.7626 40.1062 44.7626 40.1058 44.7575L40.1009 44.7579C39.9649 44.5798 39.8131 44.464 39.6577 44.4303C38.9075 44.2841 35.7597 45.2298 31.8443 45.3376C27.9235 45.4458 25.4492 45.4732 24.5576 45.6081C23.666 45.7431 22.0294 47.0564 21.9276 47.3903C21.8256 47.7191 21.4264 52.9936 20.9008 55.368C20.5534 56.944 19.4383 59.7357 18.816 61.7811C18.4979 62.8146 18.3032 63.6601 18.3999 64.0554Z" fill="url(#paint3_linear_20_23281)"/>
<path opacity="0.31" d="M40.1006 44.7564C40.1006 44.7564 40.1006 44.7564 40.1073 44.7623C40.1073 44.7623 40.1073 44.7623 40.1068 44.7559L40.1006 44.7564Z" fill="#D87290"/>
<path opacity="0.31" d="M41.2808 62.1356C39.9183 60.9207 37.1042 59.4506 34.4851 58.1948C38.6649 60.4618 41.7295 64.1903 41.7295 64.1903C47.299 66.1719 50.4353 69.5791 51.8537 71.5185C52.3361 70.1717 52.798 68.3628 52.9062 66.8563C52.9931 65.6674 53.3694 63.4726 53.6829 61.7209L53.6872 61.7102C53.9532 60.268 54.1821 59.1344 54.1821 59.1344C52.0848 60.7534 41.2808 62.1356 41.2808 62.1356Z" fill="#D87290"/>
<path opacity="0.31" d="M34.485 58.1948C33.9265 57.8913 33.3499 57.6147 32.7556 57.375C33.3104 57.6331 33.8922 57.9093 34.485 58.1948Z" fill="#D87290"/>
<path opacity="0.31" d="M18.816 61.781C22.5562 60.851 28.5192 56.4934 28.5192 56.4934C29.956 56.4897 31.3729 56.8241 32.7136 57.3578C30.5261 56.3491 28.8178 55.6041 28.7932 55.4836C28.7407 55.1971 28.602 52.5377 28.602 52.5377C28.602 52.5377 32.334 52.9588 34.0542 52.7295C35.7742 52.5003 40.8665 49.2748 40.9303 47.9857C40.9763 46.9935 40.6438 45.521 40.1465 44.8204C40.3569 45.1711 41.2575 46.8751 39.7418 48.434C38.0416 50.1803 28.8444 51.7138 27.2489 51.1132C25.6586 50.512 21.9274 47.39 21.9274 47.39C21.8253 47.7188 21.4262 52.9933 20.9006 55.3677C20.5532 56.9437 19.4383 59.7355 18.816 61.781Z" fill="#D87290"/>
<path opacity="0.5" d="M28.6019 52.5378L25.5818 51.9662L28.6379 53.469L28.6019 52.5378Z" fill="#D87290"/>
<path opacity="0.5" d="M28.6019 52.5377L28.7931 55.4836C28.7931 55.4836 34.9752 55.4605 41.2807 62.1356C41.2807 62.1356 46.9369 61.5642 50.164 60.5706L52.0118 57.9451L53.9408 51.0402L54.1991 48.7016L52.7795 51.6099C52.7795 51.6099 51.9898 54.5191 51.6241 55.4162C51.2587 56.3133 49.2469 57.7717 48.5011 57.8048C47.7553 57.8382 45.627 56.8433 45.3482 56.3579C45.0695 55.8724 46.2752 49.6988 46.2752 49.6988C46.2752 49.6988 48.4939 46.4821 49.6536 45.5251C49.6536 45.5251 46.5235 47.481 46.0417 48.1215C45.5599 48.762 44.2959 54.6043 43.2845 55.2616C42.2729 55.9188 39.877 55.5239 39.1904 55.07C38.5037 54.616 37.6816 51.0343 37.6816 51.0343C37.6816 51.0343 34.9283 52.5809 34.0541 52.7291C33.1799 52.8778 28.6019 52.5377 28.6019 52.5377Z" fill="#D87290"/>
<path opacity="0.97" d="M39.1663 44.4325C39.655 44.3834 40.1595 46.3793 39.3563 46.8993C38.553 47.4193 33.2294 47.5637 31.8984 46.5799C30.5674 45.5961 33.7754 44.9738 39.1663 44.4325Z" fill="#F5AF8F"/>
<path d="M39.1567 46.9913C39.1567 46.9913 37.8099 47.5729 35.2004 47.4962C32.5909 47.4195 30.8187 46.5058 30.6748 46.0464C30.5308 45.5867 33.3575 45.2546 33.3575 45.2546C33.3575 45.2546 31.5833 45.6842 31.6927 46.2576C31.8019 46.8312 36.1693 47.8901 39.1567 46.9913Z" fill="#E86C7C"/>
<path opacity="0.97" d="M38.5585 44.4773C38.5585 44.4773 39.0008 45.8083 38.7816 47.0923C38.7816 47.0923 39.1515 47.0332 39.4339 46.8396C39.7163 46.6459 40.0723 45.0362 39.1664 44.4327L38.5585 44.4773Z" fill="#F5D3D2"/>
<path opacity="0.97" d="M33.3573 45.2548C33.3573 45.2548 33.8456 45.537 33.7775 45.9042C33.7092 46.2715 32.1043 46.5864 32.1043 46.5864C32.1043 46.5864 31.623 46.4551 31.7209 46.0801C31.8189 45.7049 33.3573 45.2548 33.3573 45.2548Z" fill="#F5D3D2"/>
<path opacity="0.97" d="M45.6006 56.162C45.6006 56.162 45.8493 57.3403 48.2889 57.6519C48.3968 57.664 48.5005 57.5542 48.5923 57.3585C48.8868 56.7497 49.0598 55.3555 48.813 54.4674L48.7799 54.368C48.7657 54.3181 48.7516 54.2682 48.733 54.2238C48.7271 54.214 48.7265 54.204 48.721 54.1993C48.4154 53.54 47.32 53.3439 46.5153 53.9461C46.0718 54.2758 45.7184 54.8483 45.6272 55.7164C45.6276 55.7215 45.628 55.7266 45.6233 55.732C45.6084 55.8657 45.5992 56.009 45.6006 56.162Z" fill="#F5AF8F"/>
<path opacity="0.97" d="M39.0232 54.5892C39.0672 54.698 39.1093 54.7814 39.1541 54.834C39.4635 55.2127 41.0816 56.0411 42.5268 55.1552C42.5658 55.1319 42.5994 55.1037 42.6323 55.0706C42.7787 54.9217 42.8715 54.67 42.9245 54.3653L42.9233 54.3502C43.0865 53.3592 42.8051 51.7554 42.2421 50.7998C42.0554 50.493 41.8431 50.2495 41.6088 50.1198C40.5925 49.5611 39.5095 50.0572 39.0038 50.8349C38.9944 50.8458 38.9901 50.8564 38.9858 50.8668C38.8993 51.001 38.8287 51.1439 38.7788 51.2905C38.7663 51.3271 38.7539 51.3637 38.7469 51.4051C38.5175 52.3247 38.7578 53.9218 39.0232 54.5892Z" fill="#F5AF8F"/>
<path opacity="0.5" d="M39.0042 50.835L38.8781 51.1147C39.3308 50.443 40.8837 49.564 41.8638 50.7114C42.9004 51.931 42.9284 54.0132 42.9237 54.3498C43.1389 53.0388 42.5777 50.6513 41.6095 50.1194C40.5929 49.561 39.5099 50.0571 39.0042 50.835Z" fill="#D87290"/>
<path opacity="0.5" d="M38.7473 51.4051L38.8778 51.1149C38.8314 51.1746 38.8003 51.2329 38.7792 51.2905C38.7669 51.3271 38.7543 51.3638 38.7473 51.4051Z" fill="#D87290"/>
<path opacity="0.5" d="M45.6277 55.7164C45.725 55.3266 46.2277 53.5809 47.7628 53.9927C49.4591 54.4481 48.6206 57.2595 48.5926 57.3582C48.9133 56.6916 49.0998 55.0769 48.7335 54.2236C48.2859 53.1778 45.8806 53.2459 45.6277 55.7164Z" fill="#D87290"/>
<path opacity="0.97" d="M45.6006 56.162C45.6006 56.162 45.8492 57.3402 48.2888 57.6519C48.3968 57.664 48.5005 57.5541 48.5923 57.3584C48.5923 57.3584 46.7235 57.3086 45.6006 56.162Z" fill="#F5D3D2"/>
<path opacity="0.97" d="M39.0231 54.5893C39.067 54.6981 39.1092 54.7815 39.1539 54.834C39.4633 55.2128 41.0815 56.0412 42.5266 55.1553C42.5657 55.132 42.5992 55.1038 42.6322 55.0706C42.098 55.1473 40.3433 55.3234 39.0231 54.5893Z" fill="#F5D3D2"/>
<path d="M37.6815 51.0347C37.6815 51.0347 34.9444 53.0146 33.9648 53.2514C32.9853 53.4882 28.9738 52.83 28.793 55.4839L28.6018 52.5379C28.6018 52.5379 32.6827 52.9255 34.054 52.7298C35.4253 52.5339 37.6815 51.0347 37.6815 51.0347Z" fill="#AB3D52"/>
<path d="M39.1 54.9925C39.1 54.9925 39.2517 55.452 42.0796 56.232C44.9076 57.0119 47.8688 58.1358 48.65 58.1078C49.4311 58.0798 51.4579 55.7111 51.4579 55.7111C51.4579 55.7111 49.1457 57.9247 48.5009 57.8055C47.8561 57.6863 45.7493 56.8669 45.348 56.3585C44.9468 55.8504 45.9368 51.5196 45.9368 51.5196C45.9368 51.5196 44.8358 53.8911 43.6311 54.8608C42.4264 55.8305 39.8795 55.7686 39.1 54.9925Z" fill="#AB3D52"/>
<path d="M40.9301 47.9857C40.9301 47.9857 40.6041 49.5145 37.8488 51.71L36.3232 51.8273C36.3232 51.8273 39.2522 50.4335 40.9301 47.9857Z" fill="#AB3D52"/>
<path opacity="0.6" d="M33.5891 92.8907C33.7789 92.1118 37.6426 75.5123 34.8652 73.5248C32.0612 71.5241 21.6705 68.4765 21.3447 68.415C22.6584 69.5266 32.0424 74.4555 33.2728 76.6693C34.0709 78.1008 33.8468 86.8373 33.5891 92.8907Z" fill="#F3BAC0"/>
<path opacity="0.6" d="M33.5861 92.9164C33.4411 96.2603 33.727 105.058 33.727 105.058C39.9403 108.055 49.2742 103.861 49.2742 103.861C49.2742 103.861 46.5074 76.9394 46.7268 76.4793C46.9515 76.0237 50.616 74.1109 51.2369 72.9727C51.2369 72.9727 48.1564 73.9336 42.3981 73.6686C36.6398 73.4035 21.345 68.4151 21.345 68.4151C22.6586 69.5268 32.0426 74.4557 33.273 76.6695C34.0712 78.1011 33.8485 86.8577 33.5859 92.9115L33.5861 92.9164Z" fill="#F3BAC0"/>
<path opacity="0.5" d="M21.3447 68.415C22.6584 69.5266 32.0424 74.4555 33.2728 76.6693L34.8652 73.5248C32.0614 71.5239 21.6705 68.4765 21.3447 68.415Z" fill="#D87290"/>
<path d="M42.8483 66.2142C42.8483 66.2142 40.2944 59.3784 28.7931 55.4836C28.7931 55.4836 40.2807 56.6922 42.8483 66.2142Z" fill="#B24D61"/>
<path opacity="0.97" d="M47.3716 41.5021C47.3716 41.5021 43.5145 41.2804 41.9585 40.3256C41.9585 40.3256 44.8071 39.3852 47.3716 41.5021Z" fill="#F5EE8F"/>
<path opacity="0.97" d="M54.0917 47.3091C54.0917 47.3091 51.0912 47.2964 49.6534 45.5255C49.6534 45.5255 52.6464 44.8134 54.0917 47.3091Z" fill="#F5EE8F"/>
<path opacity="0.97" d="M38.2052 11.7611C38.2052 11.7611 35.1426 12.5719 33.1901 11.8554C33.1901 11.8554 35.9988 10.6147 38.2052 11.7611Z" fill="#F5EE8F"/>
<path opacity="0.97" d="M19.3051 16.2419C19.3051 16.2419 15.7169 17.7272 14.0431 19.3985C14.0431 19.3985 14.3181 17.3765 15.6561 16.5227C16.9943 15.6692 19.3051 16.2419 19.3051 16.2419Z" fill="#F5EE8F"/>
<path opacity="0.3" d="M51.607 52.038C51.607 52.038 50.113 52.587 48.203 52.3001C46.2929 52.0132 46.3505 49.962 46.3505 49.962C46.3505 49.962 47.409 52.1646 51.607 52.038Z" fill="#D87290"/>
<path opacity="0.3" d="M45.1708 47.4841C45.1708 47.4841 42.441 48.487 40.7415 48.4653C40.7415 48.4653 40.9046 48.0363 40.9012 47.6105C40.9012 47.6105 41.8433 47.8563 45.1708 47.4841Z" fill="#D87290"/>
<path opacity="0.97" d="M51.8896 52.8052L50.1794 56.51C50.1794 56.51 51.3677 55.5278 51.4195 55.2125C51.4714 54.8972 51.8896 52.8052 51.8896 52.8052Z" fill="#F5A995"/>
<path opacity="0.97" d="M26.2055 68.891C26.2055 68.891 22.6938 68.4258 21.9713 67.8217C21.2488 67.2176 18.791 65.0598 18.6743 63.8762C18.5575 62.6926 20.7662 56.5599 20.7662 56.5599C20.7662 56.5599 19.2211 62.1291 19.7808 63.791C20.3407 65.4529 23.0197 67.9569 26.2055 68.891Z" fill="#F5FFFF"/>
<path opacity="0.97" d="M44.2609 104.861C44.2609 104.861 47.7753 103.647 48.4254 102.866C49.0754 102.086 46.0804 77.4716 46.0804 77.4716C46.0804 77.4716 47.9268 100.781 47.026 102.25C46.1256 103.719 44.2609 104.861 44.2609 104.861Z" fill="#F5FFFF"/>
<path opacity="0.97" d="M53.0134 61.2323C53.0134 61.2323 52.5418 68.7667 51.6087 71.1928C50.6758 73.6189 47.1414 75.3781 47.1414 75.3781C47.1414 75.3781 49.6908 73.5726 50.9138 70.2278C52.1369 66.8831 53.0134 61.2323 53.0134 61.2323Z" fill="#F5FFFF"/>
<path opacity="0.97" d="M38.4833 12.4478C38.4833 12.4478 39.31 13.988 39.436 17.2959C39.562 20.604 39.2559 30.5082 39.2559 30.5082C39.2559 30.5082 38.5943 13.4392 38.4833 12.4478Z" fill="#F5FFFF"/>
<path opacity="0.97" d="M14.1257 20.4704C14.1257 20.4704 15.7408 29.3256 18.355 33.5981C18.355 33.5981 15.6242 29.9771 14.5543 26.0376C13.4846 22.098 14.1257 20.4704 14.1257 20.4704Z" fill="#F5FFFF"/>
<path opacity="0.97" d="M34.3721 78.3729C34.3721 78.3729 34.832 100.003 34.3081 104.484C34.3081 104.484 35.8882 87.3806 34.3721 78.3729Z" fill="#F5FFFF"/>
<path opacity="0.97" d="M30.5218 45.4729C30.5218 45.4729 27.8006 46.1831 26.3821 46.0993C24.9635 46.0154 24.5574 45.6079 24.5574 45.6079L30.5218 45.4729Z" fill="#F5FFFF"/>
<path opacity="0.97" d="M21.9274 47.39C21.9274 47.39 23.2337 47.6375 24.1653 47.1974C25.097 46.7573 24.5574 45.6079 24.5574 45.6079C24.5574 45.6079 23.3036 46.0314 21.9274 47.39Z" fill="#F5AF8F"/>
<path opacity="0.5" d="M40.93 47.9858L40.5464 47.2717C40.5464 47.2717 40.5028 45.1497 39.6575 44.4298C39.6575 44.4298 40.9082 44.7703 40.93 47.9858Z" fill="#D87290"/>
<defs>
<linearGradient id="paint0_linear_20_23281" x1="-12.4862" y1="103.998" x2="86.1457" y2="16.1423" gradientUnits="userSpaceOnUse">
<stop stop-color="#CCCCD1"/>
<stop offset="0.968" stop-color="#F7F7FC"/>
</linearGradient>
<radialGradient id="paint1_radial_20_23281" cx="0" cy="0" r="1" gradientUnits="userSpaceOnUse" gradientTransform="translate(-7.15928 37.732) rotate(-90) scale(200.307 200.307)">
<stop offset="0.0056" stop-color="#E7E5F0"/>
<stop offset="0.1686" stop-color="#E3E0EC"/>
<stop offset="0.3681" stop-color="#D7D1E2"/>
<stop offset="0.5868" stop-color="#C3B8D0"/>
<stop offset="0.8175" stop-color="#A896B7"/>
<stop offset="1" stop-color="#8E75A0"/>
</radialGradient>
<linearGradient id="paint2_linear_20_23281" x1="37.2475" y1="68.0408" x2="32.8786" y2="11.325" gradientUnits="userSpaceOnUse">
<stop stop-color="#FF8777"/>
<stop offset="0.984" stop-color="#FFB880"/>
</linearGradient>
<linearGradient id="paint3_linear_20_23281" x1="39.7171" y1="106.142" x2="34.9882" y2="44.7523" gradientUnits="userSpaceOnUse">
<stop offset="0.016" stop-color="#FFB880"/>
<stop offset="1" stop-color="#FF8777"/>
</linearGradient>
</defs>
</svg>
