<svg width="14" height="14" viewBox="0 0 14 14" fill="none" xmlns="http://www.w3.org/2000/svg">
<path d="M7.35298 4.16148L9.11769 4.16148C9.39851 4.16148 9.66782 4.27303 9.86639 4.4716C10.065 4.67017 10.1765 4.93948 10.1765 5.2203C10.1765 5.50112 10.065 5.77044 9.86639 5.969C9.66782 6.16757 9.39851 6.27913 9.11769 6.27913L8.05887 6.27913" stroke="#1B73DD" stroke-linecap="round" stroke-linejoin="round"/>
<path d="M8.41181 6.27913L9.11769 6.27913C9.39851 6.27913 9.66782 6.39068 9.86639 6.58925C10.065 6.78782 10.1765 7.05713 10.1765 7.33795C10.1765 7.61877 10.065 7.88808 9.86639 8.08665C9.66782 8.28522 9.39851 8.39677 9.11769 8.39677L8.05887 8.39677" stroke="#1B73DD" stroke-linecap="round" stroke-linejoin="round"/>
<path d="M8.05882 10.5144L11.9412 10.5144C12.222 10.5144 12.4913 10.6259 12.6899 10.8245C12.8884 11.0231 13 11.2924 13 11.5732C13 11.854 12.8884 12.1233 12.6899 12.3219C12.4913 12.5205 12.222 12.632 11.9412 12.632L5.23529 12.632C4.11202 12.632 3.03476 12.1858 2.24049 11.3915C1.44622 10.5973 0.999999 9.52 0.999999 8.39673L0.999999 6.98496L0.999999 7.13179C0.999881 6.43038 1.17397 5.73992 1.50662 5.12241C1.83928 4.5049 2.32009 3.97968 2.90588 3.59391C2.97635 3.54761 3.04694 3.50149 3.11765 3.45555C3.45576 3.23532 4.80329 2.46238 7.16094 1.13602C7.40127 1.00081 7.68487 0.964693 7.95142 1.03535C8.21797 1.10601 8.44644 1.27787 8.58824 1.51438C8.73939 1.76629 8.80204 2.06149 8.76623 2.35308C8.73042 2.64467 8.5982 2.91593 8.39059 3.12379L7.35294 4.16143" stroke="#1B73DD" stroke-linecap="round" stroke-linejoin="round"/>
<path d="M9.11769 8.39677C9.39851 8.39677 9.66782 8.50833 9.86639 8.70689C10.065 8.90546 10.1765 9.17478 10.1765 9.4556C10.1765 9.73641 10.065 10.0057 9.86639 10.2043C9.66782 10.4029 9.39851 10.5144 9.11769 10.5144L8.05887 10.5144" stroke="#1B73DD" stroke-linecap="round" stroke-linejoin="round"/>
</svg>
