<svg width="10" height="9" viewBox="0 0 10 9" fill="#1B73DD" xmlns="http://www.w3.org/2000/svg">
<path d="M4.94342 8.32416C4.9813 8.32416 5.02487 8.31476 5.07409 8.296C5.12334 8.27721 5.16311 8.25281 5.19341 8.22278L9.02277 4.41552C9.12127 4.31788 9.19513 4.20714 9.24435 4.08323C9.2936 3.95933 9.31821 3.83353 9.31821 3.70588C9.31821 3.57822 9.2936 3.45055 9.24435 3.32291C9.19513 3.19524 9.12127 3.0826 9.02277 2.98498L6.97741 0.957446C6.87894 0.859825 6.76531 0.786609 6.63652 0.737797C6.50775 0.688985 6.37896 0.66458 6.25017 0.66458C6.12141 0.66458 5.9945 0.688985 5.86951 0.737797C5.74452 0.786609 5.63279 0.859825 5.5343 0.957446L5.32976 1.1602L6.25017 2.08386C6.34867 2.18897 6.43578 2.31101 6.51153 2.44994C6.5873 2.58885 6.62516 2.74091 6.62516 2.90614C6.62516 3.19148 6.51344 3.44305 6.28995 3.66083C6.06648 3.87859 5.81081 3.98749 5.52294 3.98749C5.33356 3.98749 5.17636 3.95933 5.05137 3.90301C4.92637 3.84669 4.81086 3.76595 4.70479 3.66083L3.87529 2.83855L1.81856 4.87735C1.78069 4.91488 1.75418 4.95431 1.73903 4.99562C1.72388 5.03692 1.7163 5.0801 1.7163 5.12516C1.7163 5.22277 1.7485 5.30349 1.81289 5.36734C1.87729 5.43116 1.95872 5.46308 2.05719 5.46308C2.10264 5.46308 2.14621 5.45182 2.18786 5.42929C2.22954 5.40676 2.26552 5.38047 2.29581 5.35044L3.6253 4.03254C3.69348 3.96496 3.77302 3.93117 3.86392 3.93117C3.95483 3.93117 4.03437 3.96496 4.10255 4.03254C4.17073 4.10013 4.20482 4.17898 4.20482 4.26909C4.20482 4.3592 4.17073 4.43805 4.10255 4.50563L2.78443 5.81227C2.74657 5.8498 2.72004 5.89112 2.70489 5.93617C2.68975 5.98123 2.68216 6.02628 2.68216 6.07134C2.68216 6.16145 2.71625 6.2403 2.78443 6.30789C2.85261 6.37547 2.93215 6.40926 3.02305 6.40926C3.06851 6.40926 3.11207 6.39987 3.15373 6.3811C3.19541 6.36231 3.23138 6.33792 3.26168 6.30789L4.59116 4.98999C4.65934 4.92241 4.73888 4.88861 4.82979 4.88861C4.92069 4.88861 5.00023 4.92241 5.06841 4.98999C5.13659 5.05757 5.17068 5.13642 5.17068 5.22653C5.17068 5.31665 5.13659 5.3955 5.06841 5.46308L3.75029 6.76971C3.72 6.79974 3.69539 6.83917 3.67643 6.88799C3.6575 6.93678 3.64802 6.98373 3.64802 7.02879C3.64802 7.1189 3.68211 7.19775 3.75029 7.26533C3.81847 7.33292 3.89801 7.36671 3.98892 7.36671C4.03437 7.36671 4.07605 7.35918 4.11391 7.34418C4.1518 7.32915 4.18968 7.30286 4.22754 7.26533L5.55703 5.94744C5.6252 5.87985 5.70475 5.84606 5.79565 5.84606C5.88656 5.84606 5.9661 5.87985 6.03428 5.94744C6.10245 6.01502 6.13654 6.09387 6.13654 6.18398C6.13654 6.27409 6.10245 6.35294 6.03428 6.42053L4.70479 7.73842C4.66693 7.77596 4.64041 7.81727 4.62525 7.86233C4.61012 7.90738 4.60252 7.94868 4.60252 7.98623C4.60252 8.09135 4.63284 8.17396 4.69343 8.23404C4.75404 8.2941 4.83738 8.32416 4.94342 8.32416ZM4.94342 9C4.69343 9 4.46996 8.90799 4.27299 8.72403C4.07605 8.54004 3.95862 8.31289 3.92074 8.04255C3.66318 8.005 3.44728 7.89986 3.27304 7.72716C3.09882 7.55444 2.99276 7.34042 2.95487 7.08511C2.69732 7.04755 2.48331 6.94055 2.31286 6.76408C2.14241 6.5876 2.03826 6.37547 2.00037 6.12766C1.72009 6.09011 1.48904 5.97747 1.30723 5.78974C1.12542 5.60199 1.03452 5.37671 1.03452 5.11389C1.03452 4.98623 1.05914 4.85856 1.10838 4.73092C1.15762 4.60325 1.23148 4.49061 1.32996 4.39299L3.39804 2.34293C3.52682 2.21527 3.68591 2.15144 3.87529 2.15144C4.06469 2.15144 4.22377 2.21527 4.35254 2.34293L5.12523 3.10889C5.18584 3.16895 5.25213 3.2159 5.32408 3.24969C5.39606 3.28348 5.46612 3.30038 5.5343 3.30038C5.63279 3.30038 5.72559 3.25719 5.8127 3.17084C5.89983 3.08447 5.94337 2.99249 5.94337 2.89487C5.94337 2.84982 5.93012 2.79913 5.9036 2.74281C5.8771 2.68649 5.83354 2.62827 5.77292 2.56821L4.148 0.957446C4.04953 0.859825 3.9359 0.786609 3.80711 0.737797C3.67834 0.688985 3.54955 0.66458 3.42076 0.66458C3.29199 0.66458 3.16509 0.688985 3.0401 0.737797C2.9151 0.786609 2.80338 0.859825 2.70489 0.957446L0.9777 2.66959C0.826191 2.81976 0.733394 3.00188 0.699304 3.2159C0.665215 3.42992 0.689834 3.63454 0.773164 3.82979C0.811042 3.91238 0.811042 3.99686 0.773164 4.08323C0.735287 4.16958 0.674685 4.23153 0.591355 4.26909C0.508025 4.30662 0.420908 4.30662 0.330003 4.26909C0.239098 4.23153 0.174708 4.17145 0.136831 4.08886C0.00804792 3.75094 -0.0298276 3.41489 0.0231995 3.08073C0.0762265 2.74655 0.23531 2.44805 0.50045 2.18524L2.21627 0.484355C2.38295 0.31915 2.57232 0.197121 2.78443 0.118273C2.99655 0.0394243 3.21245 0 3.43212 0C3.65182 0 3.86583 0.0394243 4.07414 0.118273C4.28247 0.197121 4.46996 0.31915 4.63661 0.484355L4.84115 0.687109L5.04569 0.484355C5.21236 0.31915 5.40174 0.197121 5.61384 0.118273C5.82597 0.0394243 6.04187 0 6.26154 0C6.48123 0 6.69524 0.0394243 6.90355 0.118273C7.11188 0.197121 7.29938 0.31915 7.46603 0.484355L9.50002 2.50063C9.6667 2.66583 9.79169 2.85356 9.87501 3.06383C9.95834 3.27409 10 3.48811 10 3.70588C10 3.92364 9.95834 4.13579 9.87501 4.34231C9.79169 4.5488 9.6667 4.73466 9.50002 4.89988L5.67066 8.69587C5.57218 8.79348 5.46044 8.86857 5.33544 8.92115C5.21045 8.97371 5.07977 9 4.94342 9Z"/>
</svg>
