<svg width="12" height="13" viewBox="0 0 12 13" fill="none" xmlns="http://www.w3.org/2000/svg">
<path d="M5.32117 5.9222V5.34441C5.32117 5.11455 5.41248 4.8941 5.57502 4.73157C5.73755 4.56903 5.958 4.47772 6.18786 4.47772C6.41772 4.47772 6.63817 4.56903 6.8007 4.73157C6.96324 4.8941 7.05455 5.11455 7.05455 5.34441V6.2111" stroke="#1B73DD" stroke-linecap="round" stroke-linejoin="round"/>
<path d="M8.78792 6.2111V2.45544C8.78792 2.22558 8.87923 2.00513 9.04177 1.8426C9.2043 1.68006 9.42475 1.58875 9.65461 1.58875C9.88447 1.58875 10.1049 1.68006 10.2675 1.8426C10.43 2.00513 10.5213 2.22558 10.5213 2.45544V8.52228C10.5213 9.44172 10.1561 10.3235 9.50591 10.9737C8.85576 11.6238 7.97398 11.989 7.05453 11.989H5.89895H6.01913C5.44499 11.9891 4.87982 11.8466 4.37437 11.5744C3.86891 11.3021 3.43899 10.9085 3.12322 10.429C3.08532 10.3713 3.04757 10.3135 3.00997 10.2557C2.8297 9.9789 2.19702 8.87589 1.11134 6.94606C1.00066 6.74934 0.9711 6.5172 1.02894 6.29902C1.08677 6.08083 1.22745 5.89382 1.42104 5.77776C1.62724 5.65403 1.86887 5.60275 2.10755 5.63206C2.34623 5.66138 2.56827 5.7696 2.73841 5.93954L3.58777 6.7889" stroke="#1B73DD" stroke-linecap="round" stroke-linejoin="round"/>
<path d="M7.05457 5.34441C7.05457 5.11455 7.14588 4.8941 7.30841 4.73157C7.47095 4.56903 7.6914 4.47772 7.92126 4.47772C8.15112 4.47772 8.37156 4.56903 8.5341 4.73157C8.69664 4.8941 8.78795 5.11455 8.78795 5.34441V6.2111" stroke="#1B73DD" stroke-linecap="round" stroke-linejoin="round"/>
<path d="M3.58777 6.7889V1.87764C3.58777 1.64778 3.67908 1.42734 3.84162 1.2648C4.00415 1.10226 4.2246 1.01095 4.45446 1.01095C4.68432 1.01095 4.90477 1.10226 5.0673 1.2648C5.22984 1.42734 5.32115 1.64778 5.32115 1.87764V6.2111" stroke="#1B73DD" stroke-linecap="round" stroke-linejoin="round"/>
</svg>
