<svg width="12" height="11" viewBox="0 0 12 11" fill="none" xmlns="http://www.w3.org/2000/svg">
<path d="M3.35294 6.06368V1.56504C3.35294 1.4159 3.29097 1.27287 3.18065 1.16741C3.07034 1.06195 2.92072 1.00271 2.76471 1.00271H1.58824C1.43223 1.00271 1.28261 1.06195 1.17229 1.16741C1.06197 1.27287 1 1.4159 1 1.56504V5.50135C1 5.65049 1.06197 5.79352 1.17229 5.89898C1.28261 6.00444 1.43223 6.06368 1.58824 6.06368H3.35294ZM3.35294 6.06368C3.97698 6.06368 4.57546 6.30067 5.01672 6.7225C5.45798 7.14433 5.70588 7.71645 5.70588 8.31301V8.87534C5.70588 9.17362 5.82983 9.45968 6.05046 9.67059C6.27109 9.88151 6.57033 10 6.88235 10C7.19437 10 7.49361 9.88151 7.71424 9.67059C7.93487 9.45968 8.05882 9.17362 8.05882 8.87534V6.06368H9.82353C10.1355 6.06368 10.4348 5.94519 10.6554 5.73428C10.8761 5.52336 11 5.2373 11 4.93902L10.4118 2.12737C10.3272 1.78239 10.1667 1.48618 9.9545 1.28333C9.74231 1.08049 9.4899 0.982002 9.23529 1.00271H5.11765C4.64962 1.00271 4.20076 1.18044 3.86981 1.49682C3.53887 1.81319 3.35294 2.24228 3.35294 2.6897" stroke="#1B73DD" stroke-linecap="round" stroke-linejoin="round"/>
</svg>
