<svg width="12" height="11" viewBox="0 0 12 11" fill="none" xmlns="http://www.w3.org/2000/svg">
<path d="M3.35294 4.93632V9.43496C3.35294 9.5841 3.29097 9.72713 3.18065 9.83259C3.07034 9.93805 2.92072 9.99729 2.76471 9.99729H1.58824C1.43223 9.99729 1.28261 9.93805 1.17229 9.83259C1.06197 9.72713 1 9.5841 1 9.43496V5.49865C1 5.34951 1.06197 5.20648 1.17229 5.10102C1.28261 4.99556 1.43223 4.93632 1.58824 4.93632H3.35294ZM3.35294 4.93632C3.97698 4.93632 4.57546 4.69933 5.01672 4.2775C5.45798 3.85567 5.70588 3.28355 5.70588 2.68699V2.12466C5.70588 1.82638 5.82983 1.54032 6.05046 1.32941C6.27109 1.11849 6.57033 1 6.88235 1C7.19437 1 7.49361 1.11849 7.71424 1.32941C7.93487 1.54032 8.05882 1.82638 8.05882 2.12466V4.93632H9.82353C10.1355 4.93632 10.4348 5.05481 10.6554 5.26572C10.8761 5.47664 11 5.7627 11 6.06098L10.4118 8.87263C10.3272 9.21761 10.1667 9.51382 9.9545 9.71667C9.74231 9.91951 9.4899 10.018 9.23529 9.99729H5.11765C4.64962 9.99729 4.20076 9.81956 3.86981 9.50318C3.53887 9.18681 3.35294 8.75772 3.35294 8.3103" stroke="#1B73DD" stroke-linecap="round" stroke-linejoin="round"/>
</svg>
