<svg width="12" height="11" viewBox="0 0 12 11" fill="none" xmlns="http://www.w3.org/2000/svg">
<path d="M3.68732 4.6V2.5C3.68732 2.26131 3.78214 2.03239 3.95092 1.8636C4.1197 1.69482 4.34862 1.6 4.58732 1.6C4.82601 1.6 5.05493 1.69482 5.22371 1.8636C5.3925 2.03239 5.48732 2.26131 5.48732 2.5V4" stroke="#1B73DD" stroke-linecap="round" stroke-linejoin="round"/>
<path d="M5.4873 3.7V1.9C5.4873 1.66131 5.58213 1.43239 5.75091 1.2636C5.91969 1.09482 6.14861 1 6.3873 1C6.626 1 6.85492 1.09482 7.0237 1.2636C7.19248 1.43239 7.2873 1.66131 7.2873 1.9V4" stroke="#1B73DD" stroke-linecap="round" stroke-linejoin="round"/>
<path d="M7.28729 2.5C7.28729 2.26131 7.38211 2.03239 7.5509 1.8636C7.71968 1.69482 7.9486 1.6 8.18729 1.6C8.42599 1.6 8.65491 1.69482 8.82369 1.8636C8.99247 2.03239 9.08729 2.26131 9.08729 2.5V4" stroke="#1B73DD" stroke-linecap="round" stroke-linejoin="round"/>
<path d="M9.08728 3.7C9.08728 3.4613 9.1821 3.23239 9.35088 3.0636C9.51967 2.89482 9.74859 2.8 9.98728 2.8C10.226 2.8 10.4549 2.89482 10.6237 3.0636C10.7925 3.23239 10.8873 3.4613 10.8873 3.7V6.4C10.8873 7.35478 10.508 8.27045 9.83287 8.94558C9.15773 9.62071 8.24206 10 7.28728 10H6.08728H6.21208C5.61588 10.0001 5.02899 9.85213 4.50411 9.56937C3.97923 9.28661 3.53279 8.87792 3.20488 8.38L3.08728 8.2C2.90008 7.9126 2.24308 6.7672 1.11568 4.7632C1.00075 4.55892 0.97005 4.31786 1.03011 4.09129C1.09017 3.86472 1.23625 3.67052 1.43728 3.55C1.65141 3.42152 1.90232 3.36827 2.15018 3.39871C2.39803 3.42914 2.6286 3.54153 2.80528 3.718L3.68728 4.6" stroke="#1B73DD" stroke-linecap="round" stroke-linejoin="round"/>
</svg>
