<svg width="24" height="24" viewBox="0 0 24 24" fill="none" xmlns="http://www.w3.org/2000/svg">
<path d="M12 0L12.3888 0.00119991L12.7704 0.00600014L13.5096 0.0264001L13.8684 0.0420001L14.5632 0.0828L15.2268 0.138C20.9688 0.6948 23.3052 3.0312 23.862 8.7732L23.9172 9.4368L23.958 10.1316C23.964 10.2492 23.97 10.3692 23.9736 10.4904L23.994 11.2296L24 12L23.994 12.7704L23.9736 13.5096L23.958 13.8684L23.9172 14.5632L23.862 15.2268C23.3052 20.9688 20.9688 23.3052 15.2268 23.862L14.5632 23.9172L13.8684 23.958C13.7508 23.964 13.6308 23.97 13.5096 23.9736L12.7704 23.994L12 24L11.2296 23.994L10.4904 23.9736L10.1316 23.958L9.4368 23.9172L8.7732 23.862C3.0312 23.3052 0.6948 20.9688 0.138 15.2268L0.0828 14.5632L0.0420001 13.8684C0.0361623 13.7488 0.0309622 13.6292 0.0264001 13.5096L0.00600014 12.7704C0.00240014 12.5184 0 12.2616 0 12L0.00119991 11.6112L0.00600014 11.2296L0.0264001 10.4904L0.0420001 10.1316L0.0828 9.4368L0.138 8.7732C0.6948 3.0312 3.0312 0.6948 8.7732 0.138L9.4368 0.0828L10.1316 0.0420001C10.2492 0.0360001 10.3692 0.0300001 10.4904 0.0264001L11.2296 0.00600014C11.4816 0.00240014 11.7384 0 12 0ZM10.2132 8.568C9.96178 8.41833 9.66433 8.36569 9.37681 8.41996C9.08929 8.47423 8.8315 8.63168 8.65194 8.8627C8.47237 9.09372 8.3834 9.38238 8.40175 9.67441C8.42011 9.96643 8.54452 10.2417 8.7516 10.4484L10.302 12L8.7516 13.5516L8.652 13.6644C8.46551 13.9056 8.37781 14.2087 8.40672 14.5122C8.43563 14.8157 8.57899 15.0969 8.80767 15.2985C9.03634 15.5001 9.3332 15.6072 9.63794 15.5979C9.94268 15.5886 10.2325 15.4636 10.4484 15.2484L12 13.698L13.5516 15.2484L13.6644 15.348C13.9056 15.5345 14.2087 15.6222 14.5122 15.5933C14.8157 15.5644 15.0969 15.421 15.2985 15.1923C15.5001 14.9637 15.6072 14.6668 15.5979 14.3621C15.5886 14.0573 15.4636 13.7676 15.2484 13.5516L13.698 12L15.2484 10.4484L15.348 10.3356C15.5345 10.0944 15.6222 9.79128 15.5933 9.48777C15.5644 9.18426 15.421 8.90314 15.1923 8.7015C14.9637 8.49986 14.6668 8.39282 14.3621 8.40213C14.0573 8.41143 13.7676 8.53638 13.5516 8.7516L12 10.302L10.4484 8.7516L10.3356 8.652L10.2132 8.568Z" fill="#4B9CDD"/>
</svg>
