<svg width="375" height="701" viewBox="0 0 375 701" fill="none" xmlns="http://www.w3.org/2000/svg">
<g opacity="0.2">
<rect y="1" width="375" height="700" fill="#141414"/>
<path d="M375 0H0V701H375V0Z" fill="#01052D"/>
<mask id="mask0_201_50" style="mask-type:luminance" maskUnits="userSpaceOnUse" x="257" y="0" width="118" height="248">
<path d="M257.592 0C257.592 0 261.485 88.6751 318.242 114.6C375 140.524 320.812 201.014 375 247.678V0H257.592Z" fill="white"/>
</mask>
<g mask="url(#mask0_201_50)">
<path d="M375 0H257.592V247.678H375V0Z" fill="url(#paint0_linear_201_50)"/>
</g>
<mask id="mask1_201_50" style="mask-type:luminance" maskUnits="userSpaceOnUse" x="200" y="0" width="175" height="268">
<path d="M201.749 0C184.9 203.355 331.81 110.488 312.694 209.653C303.448 257.613 321.923 264.526 375 267.982V247.678C320.812 201.014 375 140.524 318.242 114.6C261.485 88.6751 257.592 0 257.592 0H201.749Z" fill="white"/>
</mask>
<g mask="url(#mask1_201_50)">
<path d="M375 0H184.9V267.982H375V0Z" fill="url(#paint1_linear_201_50)"/>
</g>
<mask id="mask2_201_50" style="mask-type:luminance" maskUnits="userSpaceOnUse" x="257" y="453" width="118" height="248">
<path d="M257.592 701C257.592 701 261.485 612.325 318.242 586.4C375 560.476 320.812 499.986 375 453.322V701H257.592Z" fill="white"/>
</mask>
<g mask="url(#mask2_201_50)">
<path d="M375 453.322H257.592V701H375V453.322Z" fill="url(#paint2_linear_201_50)"/>
</g>
<mask id="mask3_201_50" style="mask-type:luminance" maskUnits="userSpaceOnUse" x="0" y="453" width="118" height="248">
<path d="M117.408 701C117.408 701 113.515 612.325 56.7579 586.4C-3.05176e-05 560.476 54.1881 499.986 -3.05176e-05 453.322V701H117.408Z" fill="white"/>
</mask>
<g mask="url(#mask3_201_50)">
<path d="M-3.05176e-05 453.322H117.408V701H-3.05176e-05V453.322Z" fill="url(#paint3_linear_201_50)"/>
</g>
<mask id="mask4_201_50" style="mask-type:luminance" maskUnits="userSpaceOnUse" x="230" y="433" width="145" height="268">
<path d="M231.12 701C217.128 497.632 339.132 590.505 323.257 491.333C315.579 443.37 330.921 436.457 375 433V453.306C329.998 499.973 375 560.466 327.864 586.393C280.729 612.319 277.496 701 277.496 701H231.12Z" fill="white"/>
</mask>
<g mask="url(#mask4_201_50)">
<path d="M375 433H215V701H375V433Z" fill="url(#paint4_linear_201_50)"/>
</g>
<mask id="mask5_201_50" style="mask-type:luminance" maskUnits="userSpaceOnUse" x="0" y="433" width="145" height="268">
<path d="M143.88 701C157.872 497.632 35.8676 590.505 51.7432 491.333C59.4214 443.37 44.0791 436.457 0 433V453.306C45.0016 499.973 0 560.466 47.1357 586.393C94.271 612.319 97.5037 701 97.5037 701H143.88Z" fill="white"/>
</mask>
<g mask="url(#mask5_201_50)">
<path d="M0 433H160V701H0V433Z" fill="url(#paint5_linear_201_50)"/>
</g>
<mask id="mask6_201_50" style="mask-type:luminance" maskUnits="userSpaceOnUse" x="0" y="0" width="118" height="248">
<path d="M117.408 0C117.408 0 113.515 88.6751 56.7579 114.6C0 140.524 54.1882 201.014 0 247.678V0H117.408Z" fill="white"/>
</mask>
<g mask="url(#mask6_201_50)">
<path d="M117.408 0H0V247.678H117.408V0Z" fill="url(#paint6_linear_201_50)"/>
</g>
<mask id="mask7_201_50" style="mask-type:luminance" maskUnits="userSpaceOnUse" x="0" y="0" width="175" height="268">
<path d="M173.252 0C190.1 203.355 43.1897 110.488 62.3061 209.653C71.5517 257.613 53.0778 264.526 0 267.982V247.678C54.1882 201.014 0 140.524 56.7579 114.6C113.515 88.6751 117.408 0 117.408 0H173.252Z" fill="white"/>
</mask>
<g mask="url(#mask7_201_50)">
<path d="M190.1 0H0V267.982H190.1V0Z" fill="url(#paint7_linear_201_50)"/>
</g>
<mask id="mask8_201_50" style="mask-type:luminance" maskUnits="userSpaceOnUse" x="80" y="0" width="207" height="202">
<path d="M80.1039 159.585C205.79 255.776 286.844 155.584 286.844 155.584C250.048 139.32 190.702 133.326 201.749 0H173.252C185.148 143.587 115.401 139.489 80.1039 159.585Z" fill="white"/>
</mask>
<g mask="url(#mask8_201_50)">
<path d="M286.844 0H80.1039V255.776H286.844V0Z" fill="url(#paint8_linear_201_50)"/>
</g>
</g>
<defs>
<linearGradient id="paint0_linear_201_50" x1="316.296" y1="123.839" x2="377.463" y2="76.5888" gradientUnits="userSpaceOnUse">
<stop stop-color="#021B8C"/>
<stop offset="1" stop-color="#020C6A"/>
</linearGradient>
<linearGradient id="paint1_linear_201_50" x1="214.517" y1="159.337" x2="334.062" y2="118.754" gradientUnits="userSpaceOnUse">
<stop stop-color="#021B8C"/>
<stop offset="1" stop-color="#01052D"/>
</linearGradient>
<linearGradient id="paint2_linear_201_50" x1="316.296" y1="577.161" x2="377.463" y2="624.42" gradientUnits="userSpaceOnUse">
<stop stop-color="#021B8C"/>
<stop offset="1" stop-color="#020C6A"/>
</linearGradient>
<linearGradient id="paint3_linear_201_50" x1="58.7044" y1="577.161" x2="-2.46281" y2="624.42" gradientUnits="userSpaceOnUse">
<stop stop-color="#021B8C"/>
<stop offset="1" stop-color="#020C6A"/>
</linearGradient>
<linearGradient id="paint4_linear_201_50" x1="239.927" y1="541.652" x2="343.671" y2="571.292" gradientUnits="userSpaceOnUse">
<stop stop-color="#021B8C"/>
<stop offset="1" stop-color="#01052D"/>
</linearGradient>
<linearGradient id="paint5_linear_201_50" x1="135.073" y1="541.652" x2="31.3293" y2="571.292" gradientUnits="userSpaceOnUse">
<stop stop-color="#021B8C"/>
<stop offset="1" stop-color="#01052D"/>
</linearGradient>
<linearGradient id="paint6_linear_201_50" x1="58.7026" y1="123.838" x2="-2.4644" y2="76.5875" gradientUnits="userSpaceOnUse">
<stop stop-color="#021B8C"/>
<stop offset="1" stop-color="#020C6A"/>
</linearGradient>
<linearGradient id="paint7_linear_201_50" x1="160.48" y1="159.336" x2="40.9348" y2="118.753" gradientUnits="userSpaceOnUse">
<stop stop-color="#021B8C"/>
<stop offset="1" stop-color="#01052D"/>
</linearGradient>
<linearGradient id="paint8_linear_201_50" x1="157.563" y1="269.802" x2="199.123" y2="70.3106" gradientUnits="userSpaceOnUse">
<stop stop-color="#021B8C"/>
<stop offset="1" stop-color="#01052D"/>
</linearGradient>
</defs>
</svg>
