<svg width="79" height="41" viewBox="0 0 79 41" fill="none" xmlns="http://www.w3.org/2000/svg">
<path opacity="0.8" d="M77.4761 19.5209C76.1182 18.0329 64.3238 18.9086 61.6467 19.1309C58.9697 19.3532 51.0571 19.0198 50.4826 18.6224C49.9081 18.2249 50.1641 16.9596 50.6937 16.7744C51.2234 16.5893 59.2457 14.359 60.5588 13.7529C61.8719 13.1468 73.0206 10.9933 74.1314 9.66456C75.2422 8.33583 74.5846 5.12296 70.4587 4.04191C66.3328 2.96086 52.6621 9.25627 48.3093 10.1612C43.9564 11.0662 35.7403 7.64728 34.5397 7.68793C33.3391 7.72858 31.1281 9.28276 29.6358 11.0858C28.1435 12.8888 26.5253 18.8077 23.6493 19.8061C20.7735 20.8045 2.58685 18.7836 0.893607 19.6652C0.62174 19.8068 0.305768 20.2399 0 20.8667L0 32.4733C0.482186 33.6695 0.99169 34.6063 1.3154 34.877C2.03522 35.4791 23.3979 31.292 24.3861 32.0655C25.3743 32.8391 25.0686 35.2109 27.7237 36.393C30.3904 37.5802 35.3179 38.1524 38.5849 38.4448C41.8519 38.7373 45.3281 40.2881 46.5283 40.2345C47.7287 40.1808 50.3731 37.3616 50.1849 34.5246C50.1436 33.9027 52.8887 33.7303 53.9642 32.5595C55.0396 31.3889 55.3564 28.4394 54.9705 27.4646C54.5848 26.4897 54.0014 25.9779 54.1444 25.818C54.2874 25.658 61.3721 26.4956 62.2165 26.5355C63.0609 26.5755 75.0346 26.975 77.3561 25.9412C79.678 24.9076 78.8338 21.0089 77.4761 19.5209Z" fill="url(#paint0_radial_15_20141)"/>
<path d="M1.48329 16.8729L1.77655 16.2648L2.45029 16.3056C2.47037 16.3068 9.52329 16.0744 12.1444 16.1888L12.2086 16.1911C14.2925 16.2814 16.19 16.341 17.8501 16.3683L17.9089 16.3632L17.9597 16.37L18.0055 16.3706C19.6115 16.395 20.9735 16.3879 22.058 16.3496L22.2466 16.3425C24.2333 16.2627 24.6959 16.0874 24.7523 16.0624C25.7328 15.5079 28.2027 11.3848 29.3907 9.40147C30.2729 7.92874 30.7879 7.07694 31.1106 6.69547L31.117 6.68789C32.1186 5.51435 33.9663 4.28224 35.1479 3.99836C35.6393 3.87806 36.3026 3.9763 37.5102 4.34789C38.1948 4.55607 38.977 4.82991 39.7335 5.09454C40.7976 5.46696 41.8977 5.85189 42.5958 6.00576C43.8202 6.27664 46.1668 6.51625 47.5689 6.65926L47.8434 6.6874C54.8305 5.05175 57.3877 4.26018 58.3046 3.88249C58.6681 3.73405 59.0675 3.55089 59.5655 3.3042C59.9316 3.12482 60.3018 2.93655 60.6933 2.73726C63.3357 1.39257 66.3307 -0.131498 70.1983 0.00904317C73.5155 0.128191 74.6702 1.74919 75.0636 2.70484C75.6572 4.14712 75.2673 5.6814 74.5949 6.39744C74.3487 6.65647 73.9142 6.96322 72.4565 7.44919L72.3673 7.55698L72.0478 7.57969C70.5098 8.07208 68.5001 8.58356 66.8782 8.9963C65.8331 9.26241 64.9304 9.49214 64.5703 9.61293C64.1813 9.74344 63.709 9.9197 63.209 10.1063C62.9572 10.2003 62.6977 10.2972 62.4347 10.3936L62.3309 10.4307C61.4004 10.773 60.2368 11.167 59.2722 11.2927C58.4295 11.4013 54.4469 12.4883 51.3961 13.4329C51.3989 13.5458 51.4019 13.661 51.4047 13.7788C51.4127 14.1011 51.4213 14.4414 51.4304 14.7996C53.2997 14.9199 55.998 15.0587 59.3232 15.2053L59.3762 15.2089C59.3979 15.2106 59.4183 15.2127 59.4378 15.2132L59.4613 15.2137C59.5829 15.2173 59.692 15.2219 59.7888 15.2275C59.8642 15.2305 59.9316 15.2339 59.9886 15.2369L60.0348 15.2392C60.1171 15.2404 60.1762 15.2435 60.2075 15.2453C61.6111 15.3078 62.6692 15.3495 62.9679 15.3612C63.2391 15.3256 63.5182 15.293 63.7929 15.2646C66.386 14.9741 69.5755 14.8668 72.3248 14.9775C77.1873 15.1734 77.8504 15.8891 78.1362 16.1977C79.4674 17.6455 78.9525 20.8699 78.6031 21.5251C78.4951 21.7263 78.2422 22.1975 76.5511 22.7662C75.9656 22.9632 74.7925 23.3029 73.5179 23.3654C72.2402 23.4309 70.4089 23.3566 68.7932 23.2911C67.9525 23.257 67.1583 23.2247 66.6146 23.2211L66.5524 23.2206C66.3738 23.2191 66.1922 23.2177 66.0128 23.2132C65.5643 23.2047 65.1088 23.1907 64.6684 23.177C63.9418 23.1546 62.9467 23.1239 62.7207 23.1586C62.3029 23.2336 61.6994 23.1573 60.4828 22.9915C60.2511 22.9599 60.0082 22.9269 59.7593 22.8944L59.7277 22.8966L59.6578 22.8834L55.1815 22.6158C55.4661 22.967 55.6892 23.3529 55.8099 23.7716C56.1314 24.8935 55.8335 26.1605 55.5279 27.0227C55.2036 27.9479 54.5723 29.215 53.8545 29.7454C53.3051 30.1452 52.1859 30.5663 51.3818 30.8382C51.3894 31.4186 51.3017 32.1911 50.9184 32.9475C50.1048 35.0824 48.1428 36.331 46.7013 36.3065C45.4007 36.288 40.2147 35.0228 39.1272 34.7541C38.9845 34.7254 38.135 34.5558 37.0918 34.3632L37.0095 34.3466C35.728 34.1177 33.9647 33.8149 33.061 33.7489C31.9495 33.6691 30.5413 33.3613 29.2524 32.9193L29.0418 32.8472C28.5145 32.6608 28.0603 32.4664 27.7294 32.2852C27.0069 31.8914 26.3142 30.8839 25.4144 29.5037C25.2623 29.2703 25.0732 28.9804 24.9309 28.7765C22.9516 28.8851 9.03156 30.1947 3.46552 30.8224L2.73582 30.9047L2.43483 30.2349C2.28935 29.9102 -1.10241 22.2337 1.48329 16.8729Z" fill="white"/>
<path d="M60.0082 4.20768C59.5577 4.431 59.1185 4.63704 58.685 4.81395C56.3835 5.7622 48.2566 7.64289 44.1286 8.57171C42.6531 8.90266 41.689 9.11215 41.689 9.11215C41.689 9.11215 33.2965 12.6578 31.9961 14.6239C31.1881 15.8466 33.5036 22.8043 35.8215 27.9818C37.2276 31.1174 38.6327 33.6011 39.3471 33.7716C39.3471 33.7716 45.455 35.2822 46.7153 35.3C47.9802 35.3215 50.5769 33.6821 50.2991 30.1274L50.3233 30.1215C50.5757 30.0446 52.5943 29.4176 53.2623 28.9315C53.6464 28.6476 54.2119 27.7347 54.5784 26.6894C54.895 25.7956 55.0612 24.8108 54.8425 24.0486C54.4787 22.7848 52.6185 21.7961 51.7598 21.403C51.5258 21.2939 51.3691 21.228 51.3311 21.2145C51.5824 21.228 56.7647 21.5835 58.4452 21.7331C58.8746 21.7698 59.3092 21.8224 59.7358 21.8758C59.748 21.8748 59.7565 21.8782 59.7649 21.8817C59.7771 21.8807 59.7855 21.8842 59.7896 21.8838C59.8021 21.887 59.8103 21.8863 59.8103 21.8863C61.0653 22.0481 62.1828 22.2327 62.5428 22.168C62.9715 22.0899 64.5779 22.1796 66.0317 22.207C66.233 22.212 66.43 22.2133 66.6228 22.2148C68.1943 22.225 71.5546 22.4583 73.4662 22.3604C75.3743 22.2668 77.512 21.4296 77.7166 21.049C77.9172 20.6726 78.3533 17.92 77.3955 16.8783C76.4876 15.8983 69.1705 15.6743 63.905 16.2643C63.5999 16.2961 63.3031 16.3311 63.015 16.3698C63.015 16.3698 61.8387 16.325 60.1515 16.2498C60.1515 16.2498 60.0978 16.2457 60.0034 16.2449C59.9376 16.2418 59.8469 16.2365 59.7399 16.2324C59.6492 16.2269 59.5464 16.2227 59.4313 16.2192C59.3821 16.2189 59.3326 16.2144 59.279 16.2105C55.0446 16.0239 48.6681 15.711 48.1916 15.4893C47.4728 15.1551 47.0958 14.2531 47.5819 13.7482C48.0639 13.2437 57.645 10.4883 59.1434 10.2949C59.9879 10.1848 61.0635 9.8272 62.0844 9.44919L62.0883 9.44887C62.882 9.15807 63.6466 8.86135 64.2502 8.6591C65.2337 8.32914 69.2971 7.41348 71.8378 6.59031C71.8459 6.58965 71.8579 6.58471 71.866 6.58405C71.8698 6.57961 71.8739 6.57928 71.8778 6.57895L71.8861 6.5783C71.894 6.57352 71.8979 6.57319 71.8979 6.57319C72.8863 6.25508 73.6336 5.9475 73.8652 5.70411C74.6915 4.82432 74.9938 1.18801 70.1617 1.01472C66.0006 0.863321 62.8101 2.83551 60.0082 4.20768Z" fill="url(#paint1_linear_15_20141)"/>
<path opacity="0.5" d="M50.3216 11.1337L40.3226 11.4442L35.5539 24.5041L35.8217 27.9816C37.2277 31.1173 38.6328 33.6009 39.3472 33.7714C39.3472 33.7714 45.4552 35.282 46.7154 35.2998L45.861 33.5774L47.743 33.7852L46.3233 32.8159C46.3233 32.8159 45.1914 32.2306 45.0941 31.9796C44.9969 31.7286 44.8545 27.856 46.9404 27.4084C46.9404 27.4084 49.6209 29.1459 50.2993 30.1272L50.3234 30.1213C50.5759 30.0444 52.5945 29.4174 53.2625 28.9313C53.2625 28.9313 50.5902 27.673 49.2845 27.228C47.983 26.7827 48.386 21.5229 49.639 20.7006L51.76 21.4026L59.7651 21.8812C59.7565 21.8777 59.7481 21.8743 59.736 21.8752C58.9961 21.7475 52.9644 20.6946 52.2937 20.2378C51.5834 19.747 51.7443 16.8311 52.6983 16.3844C53.4346 16.0406 57.4743 16.1479 59.2794 16.21C55.0451 16.0234 48.6685 15.7105 48.1921 15.4888C47.4733 15.1546 47.0963 14.2526 47.5824 13.7477C48.0644 13.2431 57.6454 10.4878 59.1438 10.2944C59.9884 10.1843 61.064 9.82668 62.0848 9.44867L50.3216 11.1337Z" fill="#D87290"/>
<path opacity="0.31" d="M60.0082 4.20767C59.5577 4.43099 59.1185 4.63704 58.685 4.81395C56.3835 5.76219 48.2566 7.64288 44.1286 8.5717L44.2747 17.9804C44.2747 17.9804 52.6189 21.7958 51.7601 21.4026C51.5261 21.2935 51.3695 21.2277 51.3314 21.2142C51.5827 21.2277 56.765 21.5832 58.4456 21.7328C58.8749 21.7695 59.3096 21.8221 59.7361 21.8754C59.7483 21.8744 59.7569 21.8779 59.7653 21.8813C59.7774 21.8804 59.7858 21.8838 59.7899 21.8835C59.8024 21.8866 59.8107 21.886 59.8107 21.886C61.0657 22.0477 62.1831 22.2324 62.5432 22.1677C62.9719 22.0895 64.5782 22.1792 66.032 22.2067L66.0936 22.1527C66.0936 22.1527 63.0038 21.7058 62.4112 20.7712C61.8227 19.8404 61.4234 17.3473 63.8545 16.2924C63.8742 16.2827 63.8898 16.2733 63.9056 16.2638C63.6005 16.2956 63.3038 16.3306 63.0157 16.3693C63.0157 16.3693 61.8393 16.3245 60.1522 16.2493C60.1522 16.2493 60.0985 16.2452 60.004 16.2444C59.9382 16.2413 59.8475 16.236 59.7406 16.2319C59.6499 16.2264 59.547 16.2222 59.432 16.2187C59.3828 16.2184 59.3333 16.2139 59.2796 16.21C55.0453 16.0234 48.6687 15.7105 48.1923 15.4888C47.4735 15.1546 47.0964 14.2526 47.5826 13.7477C48.0646 13.2431 57.6456 10.4878 59.144 10.2944C59.9886 10.1843 61.0642 9.8267 62.085 9.44869L62.089 9.44835C62.8827 9.15756 63.6473 8.86085 64.2509 8.6586C65.2344 8.32864 69.2977 7.41297 71.8385 6.5898C70.9735 6.75486 61.4297 8.60922 60.4619 8.23664C59.6083 7.90882 59.0486 5.64715 60.0082 4.20767Z" fill="#D87290"/>
<path d="M35.3872 4.97552C34.4329 5.20476 32.7702 6.30062 31.8825 7.34102L31.8788 7.34547C30.9842 8.40266 27.0176 15.9545 25.2359 16.9448C24.0838 17.5871 17.0368 17.4079 12.1649 17.1965L12.1608 17.1969C9.46978 17.0802 2.38937 17.3103 2.38937 17.3103C-0.0225428 22.3105 3.35276 29.8221 3.35276 29.8221C3.35276 29.8221 25.0185 27.5955 25.3888 27.7721C25.7555 27.9529 27.2949 30.902 28.2108 31.4016C28.4934 31.5562 28.9006 31.7299 29.3768 31.8983C29.3809 31.898 29.3809 31.898 29.3809 31.898C30.4648 32.2862 31.9206 32.6579 33.1329 32.745C34.0897 32.8149 35.856 33.1177 37.2657 33.37L37.2743 33.3735C38.435 33.5876 39.3472 33.7717 39.3472 33.7717C38.0443 32.0839 36.932 23.3893 36.932 23.3893C37.9097 22.2927 39.0928 20.0281 40.1034 17.9203C40.3333 17.4434 40.5555 16.975 40.7632 16.5286C40.7663 16.5161 40.7739 16.5072 40.777 16.4947C41.5888 14.7343 42.1883 13.3595 42.2853 13.3397C42.5158 13.2974 44.656 13.1859 44.656 13.1859C44.656 13.1859 44.3172 16.1892 44.5017 17.5736C44.6861 18.9578 47.2819 23.0559 48.3193 23.1072C49.1178 23.1442 50.3029 22.8766 50.8667 22.4764C50.8861 22.4626 50.9017 22.4532 50.9096 22.4484C50.9096 22.4484 50.9093 22.4443 50.9134 22.444C50.9134 22.444 50.9134 22.444 50.9175 22.4436L50.9172 22.4397C51.0605 22.3303 51.1537 22.2082 51.1808 22.0831C51.2985 21.4793 50.5374 18.9461 50.4506 15.7951C50.3636 12.6398 50.3415 10.6485 50.2329 9.93101C50.1243 9.21349 49.0675 7.89644 48.7987 7.81449C48.5341 7.73237 44.2894 7.41113 42.3786 6.98819C41.1102 6.70859 38.8635 5.8112 37.2175 5.31041C36.3858 5.05434 35.7053 4.89768 35.3872 4.97552Z" fill="url(#paint2_linear_15_20141)"/>
<path opacity="0.31" d="M50.9177 22.4394C50.9177 22.4394 50.9177 22.4394 50.9136 22.444C50.9136 22.444 50.9136 22.444 50.918 22.4436L50.9177 22.4394Z" fill="#D87290"/>
<path opacity="0.31" d="M36.9322 23.3891C37.9099 22.2926 39.093 20.028 40.1036 17.9202C38.2792 21.284 35.2786 23.7502 35.2786 23.7502C33.6839 28.2324 30.9419 30.7564 29.3811 31.8978C30.465 32.286 31.9208 32.6578 33.1331 32.7449C34.0899 32.8148 35.8563 33.1176 37.2659 33.3699L37.2745 33.3734C38.4352 33.5875 39.3474 33.7716 39.3474 33.7716C38.0445 32.0838 36.9322 23.3891 36.9322 23.3891Z" fill="#D87290"/>
<path opacity="0.31" d="M40.1036 17.9202C40.3478 17.4708 40.5705 17.0067 40.7633 16.5284C40.5557 16.9749 40.3333 17.4431 40.1036 17.9202Z" fill="#D87290"/>
<path opacity="0.31" d="M37.2176 5.3103C37.966 8.32026 41.4728 13.1191 41.4728 13.1191C41.4758 14.2753 41.2067 15.4156 40.7772 16.4945C41.589 14.7342 42.1885 13.3593 42.2854 13.3396C42.516 13.2973 44.6562 13.1857 44.6562 13.1857C44.6562 13.1857 44.3174 16.1891 44.5019 17.5735C44.6863 18.9576 47.2821 23.0557 48.3195 23.1071C49.118 23.1441 50.3031 22.8765 50.8669 22.4763C50.5846 22.6456 49.2133 23.3704 47.9588 22.1506C46.5534 20.7824 45.3193 13.3807 45.8026 12.0968C46.2864 10.8169 48.7989 7.81421 48.7989 7.81421C48.5343 7.73209 44.2896 7.41085 42.3788 6.98791C41.1104 6.70831 38.8637 5.81108 37.2176 5.3103Z" fill="#D87290"/>
<path opacity="0.5" d="M44.6562 13.1857L45.1161 10.7552L43.9067 13.2147L44.6562 13.1857Z" fill="#D87290"/>
<path opacity="0.5" d="M44.6562 13.1857L42.2855 13.3396C42.2855 13.3396 42.304 18.3147 36.9322 23.3892C36.9322 23.3892 37.392 27.9411 38.1916 30.5382L40.3045 32.0252L45.8614 33.5776L47.7434 33.7854L45.4029 32.643C45.4029 32.643 43.0617 32.0074 42.3398 31.7132C41.6178 31.4191 40.4441 29.8001 40.4174 29.1999C40.3906 28.5997 41.1912 26.8869 41.5819 26.6626C41.9726 26.4383 46.9409 27.4086 46.9409 27.4086C46.9409 27.4086 49.5296 29.1941 50.2998 30.1274C50.2998 30.1274 48.7257 27.6084 48.2102 27.2206C47.6948 26.8329 42.9931 25.8157 42.4642 25.0018C41.9352 24.1876 42.253 22.2595 42.6184 21.7069C42.9837 21.1543 45.8661 20.4927 45.8661 20.4927C45.8661 20.4927 44.6215 18.277 44.5022 17.5735C44.3825 16.8699 44.6562 13.1857 44.6562 13.1857Z" fill="#D87290"/>
<path opacity="0.97" d="M51.179 21.6875C51.2185 22.0808 49.6123 22.4868 49.1938 21.8404C48.7753 21.1939 48.6592 16.9097 49.4509 15.8385C50.2426 14.7674 50.7434 17.3491 51.179 21.6875Z" fill="#F5AF8F"/>
<path d="M49.1198 21.6797C49.1198 21.6797 48.6517 20.5959 48.7135 18.4958C48.7752 16.3958 49.5105 14.9696 49.8803 14.8538C50.2502 14.7379 50.5175 17.0127 50.5175 17.0127C50.5175 17.0127 50.1717 15.5849 49.7103 15.673C49.2486 15.7609 48.3965 19.2756 49.1198 21.6797Z" fill="#E86C7C"/>
<path opacity="0.97" d="M51.143 21.1984C51.143 21.1984 50.0718 21.5544 49.0385 21.3779C49.0385 21.3779 49.086 21.6756 49.2419 21.9029C49.3977 22.1302 50.6932 22.4167 51.1789 21.6877L51.143 21.1984Z" fill="#F5D3D2"/>
<path opacity="0.97" d="M50.5173 17.0126C50.5173 17.0126 50.2902 17.4056 49.9946 17.3508C49.6991 17.2958 49.4456 16.0043 49.4456 16.0043C49.4456 16.0043 49.5513 15.6169 49.8531 15.6957C50.1551 15.7745 50.5173 17.0126 50.5173 17.0126Z" fill="#F5D3D2"/>
<path opacity="0.97" d="M41.7395 26.8656C41.7395 26.8656 40.7913 27.0657 40.5405 29.029C40.5308 29.1159 40.6192 29.1994 40.7766 29.2733C41.2666 29.5102 42.3886 29.6495 43.1033 29.4508L43.1833 29.4242C43.2234 29.4128 43.2636 29.4015 43.2993 29.3865C43.3072 29.3817 43.3153 29.3812 43.3191 29.3768C43.8496 29.1309 44.0075 28.2493 43.5228 27.6017C43.2575 27.2448 42.7967 26.9604 42.0981 26.887C42.094 26.8873 42.0899 26.8877 42.0856 26.8839C41.978 26.8719 41.8626 26.8645 41.7395 26.8656Z" fill="#F5AF8F"/>
<path opacity="0.97" d="M43.0053 21.5723C42.9177 21.6077 42.8506 21.6416 42.8083 21.6776C42.5035 21.9266 41.8368 23.2288 42.5497 24.3918C42.5685 24.4233 42.5912 24.4503 42.6179 24.4768C42.7377 24.5946 42.9403 24.6693 43.1855 24.7119L43.1976 24.7109C43.9951 24.8423 45.2859 24.6158 46.0549 24.1628C46.3017 24.0125 46.4977 23.8417 46.6021 23.6531C47.0517 22.8352 46.6524 21.9636 46.0266 21.5567C46.0179 21.5491 46.0093 21.5456 46.0009 21.5422C45.893 21.4726 45.7779 21.4158 45.6599 21.3756C45.6305 21.3656 45.601 21.3556 45.5678 21.35C44.8277 21.1653 43.5424 21.3587 43.0053 21.5723Z" fill="#F5AF8F"/>
<path opacity="0.5" d="M46.0265 21.557L45.8014 21.4554C46.342 21.8198 47.0493 23.0695 46.1259 23.8583C45.1445 24.6925 43.4688 24.7151 43.1979 24.7113C44.253 24.8844 46.1743 24.4328 46.6024 23.6536C47.0518 22.8355 46.6526 21.964 46.0265 21.557Z" fill="#D87290"/>
<path opacity="0.5" d="M45.5677 21.3503L45.8013 21.4553C45.7532 21.4179 45.7063 21.3929 45.6599 21.376C45.6304 21.3661 45.601 21.3559 45.5677 21.3503Z" fill="#D87290"/>
<path opacity="0.5" d="M42.0981 26.8874C42.4118 26.9657 43.8167 27.3702 43.4853 28.6056C43.1188 29.9707 40.8563 29.296 40.7768 29.2734C41.3133 29.5315 42.6128 29.6816 43.2995 29.3868C44.1411 29.0266 44.0863 27.0909 42.0981 26.8874Z" fill="#D87290"/>
<path opacity="0.97" d="M41.7396 26.8657C41.7396 26.8657 40.7913 27.0658 40.5405 29.0291C40.5308 29.116 40.6192 29.1994 40.7767 29.2733C40.7767 29.2733 40.8168 27.7693 41.7396 26.8657Z" fill="#F5D3D2"/>
<path opacity="0.97" d="M43.0052 21.5723C42.9177 21.6077 42.8505 21.6416 42.8082 21.6776C42.5035 21.9266 41.8368 23.2288 42.5497 24.3918C42.5685 24.4233 42.5912 24.4503 42.6178 24.4768C42.5561 24.0469 42.4144 22.6347 43.0052 21.5723Z" fill="#F5D3D2"/>
<path d="M45.8658 20.4926C45.8658 20.4926 44.2724 18.2898 44.0819 17.5015C43.8913 16.7132 44.421 13.4849 42.2853 13.3394L44.656 13.1855C44.656 13.1855 44.3442 16.4697 44.5017 17.5733C44.6593 18.6769 45.8658 20.4926 45.8658 20.4926Z" fill="#AB3D52"/>
<path d="M42.6807 21.6342C42.6807 21.6342 42.3109 21.7563 41.6832 24.0321C41.0556 26.3079 40.1511 28.691 40.1737 29.3197C40.1962 29.9483 42.1024 31.5794 42.1024 31.5794C42.1024 31.5794 40.3209 29.7186 40.4169 29.1997C40.5128 28.6808 41.1723 26.9853 41.5814 26.6624C41.9903 26.3395 45.4756 27.1362 45.4756 27.1362C45.4756 27.1362 43.5671 26.2501 42.7867 25.2807C42.0063 24.3112 42.0562 22.2615 42.6807 21.6342Z" fill="#AB3D52"/>
<path d="M48.3195 23.1069C48.3195 23.1069 47.0892 22.8446 45.3224 20.6272L45.2279 19.3995C45.2279 19.3995 46.3496 21.7566 48.3195 23.1069Z" fill="#AB3D52"/>
<path opacity="0.6" d="M12.1816 17.1992C12.8084 17.3519 26.1671 20.4613 27.7665 18.2261C29.3767 15.9696 31.8292 7.60749 31.8788 7.34534C30.9842 8.40253 27.0176 15.9544 25.236 16.9446C24.084 17.5869 17.0531 17.4066 12.1816 17.1992Z" fill="#F3BAC0"/>
<path opacity="0.6" d="M12.1608 17.1968C9.46981 17.0801 2.38941 17.3101 2.38941 17.3101C-0.0225046 22.3104 3.3528 29.822 3.3528 29.822C3.3528 29.822 25.0186 27.5954 25.3889 27.7719C25.7555 27.9528 27.2949 30.9019 28.2109 31.4015C28.2109 31.4015 27.4376 28.9224 27.6509 24.2884C27.8641 19.6543 31.8786 7.34552 31.8786 7.34552C30.984 8.40271 27.0174 15.9546 25.2358 16.9448C24.0837 17.5871 17.0367 17.4079 12.1648 17.1966L12.1608 17.1968Z" fill="#F3BAC0"/>
<path opacity="0.5" d="M31.8787 7.34531C30.9842 8.4025 27.0176 15.9544 25.2359 16.9446L27.7665 18.2261C29.3768 15.9697 31.8292 7.60746 31.8787 7.34531Z" fill="#D87290"/>
<path d="M33.6499 24.6506C33.6499 24.6506 39.1511 22.5953 42.2854 13.3394C42.2854 13.3394 41.3128 22.5843 33.6499 24.6506Z" fill="#B24D61"/>
<path opacity="0.97" d="M53.5373 28.2908C53.5373 28.2908 53.7157 25.1867 54.4841 23.9345C54.4841 23.9345 55.2409 26.227 53.5373 28.2908Z" fill="#F5EE8F"/>
<path opacity="0.97" d="M48.8641 33.699C48.8641 33.699 48.8743 31.2843 50.2994 30.1272C50.2994 30.1272 50.8725 32.5359 48.8641 33.699Z" fill="#F5EE8F"/>
<path opacity="0.97" d="M77.4718 20.914C77.4718 20.914 76.8193 18.4493 77.396 16.878C77.396 16.878 78.3944 19.1383 77.4718 20.914Z" fill="#F5EE8F"/>
<path opacity="0.97" d="M73.8658 5.70392C73.8658 5.70392 72.6706 2.81623 71.3255 1.46924C71.3255 1.46924 72.9528 1.69058 73.6399 2.76736C74.3268 3.84429 73.8658 5.70392 73.8658 5.70392Z" fill="#F5EE8F"/>
<path opacity="0.3" d="M45.0584 31.6993C45.0584 31.6993 44.6165 30.497 44.8474 28.9599C45.0783 27.4227 46.7291 27.4691 46.7291 27.4691C46.7291 27.4691 44.9565 28.3209 45.0584 31.6993Z" fill="#D87290"/>
<path opacity="0.3" d="M48.7232 26.5197C48.7232 26.5197 47.9161 24.3229 47.9336 22.9552C47.9336 22.9552 48.2789 23.0865 48.6215 23.0837C48.6215 23.0837 48.4237 23.8419 48.7232 26.5197Z" fill="#D87290"/>
<path opacity="0.97" d="M44.4409 31.9268L41.4595 30.5505C41.4595 30.5505 42.2499 31.5068 42.5036 31.5484C42.7574 31.5902 44.4409 31.9268 44.4409 31.9268Z" fill="#F5A995"/>
<path opacity="0.97" d="M31.4957 11.2571C31.4957 11.2571 31.8701 8.43101 32.3562 7.84959C32.8423 7.26817 34.5789 5.29022 35.5314 5.19626C36.4839 5.10229 41.4193 6.87979 41.4193 6.87979C41.4193 6.87979 36.9375 5.63631 35.6 6.08674C34.2626 6.53733 32.2474 8.69334 31.4957 11.2571Z" fill="#F5FFFF"/>
<path opacity="0.97" d="M2.5485 25.7874C2.5485 25.7874 3.52538 28.6156 4.15337 29.1388C4.78137 29.662 24.5903 27.2517 24.5903 27.2517C24.5903 27.2517 5.83197 28.7376 4.64938 28.0127C3.46696 27.2881 2.5485 25.7874 2.5485 25.7874Z" fill="#F5FFFF"/>
<path opacity="0.97" d="M37.6591 32.8311C37.6591 32.8311 31.5957 32.4516 29.6433 31.7007C27.6908 30.9499 26.2751 28.1055 26.2751 28.1055C26.2751 28.1055 27.728 30.1572 30.4199 31.1415C33.1116 32.1258 37.6591 32.8311 37.6591 32.8311Z" fill="#F5FFFF"/>
<path opacity="0.97" d="M76.9192 21.1378C76.9192 21.1378 75.6797 21.8032 73.0176 21.9045C70.3554 22.0059 62.3848 21.7596 62.3848 21.7596C62.3848 21.7596 76.1214 21.2272 76.9192 21.1378Z" fill="#F5FFFF"/>
<path opacity="0.97" d="M70.4629 1.53572C70.4629 1.53572 63.3365 2.83549 59.8982 4.93933C59.8982 4.93933 62.8122 2.74168 65.9826 1.88066C69.1531 1.0198 70.4629 1.53572 70.4629 1.53572Z" fill="#F5FFFF"/>
<path opacity="0.97" d="M23.8649 17.8293C23.8649 17.8293 6.45819 18.1995 2.85134 17.7778C2.85134 17.7778 16.6159 19.0495 23.8649 17.8293Z" fill="#F5FFFF"/>
<path opacity="0.97" d="M50.3417 14.7307C50.3417 14.7307 49.7702 12.5407 49.8376 11.3991C49.9051 10.2575 50.2331 9.93069 50.2331 9.93069L50.3417 14.7307Z" fill="#F5FFFF"/>
<path opacity="0.97" d="M48.7989 7.81421C48.7989 7.81421 48.5998 8.86548 48.9539 9.61525C49.3081 10.365 50.2331 9.93073 50.2331 9.93073C50.2331 9.93073 49.8923 8.92176 48.7989 7.81421Z" fill="#F5AF8F"/>
<path opacity="0.5" d="M48.3195 23.1069L48.8942 22.7982C48.8942 22.7982 50.6019 22.7631 51.1812 22.0828C51.1812 22.0828 50.9072 23.0893 48.3195 23.1069Z" fill="#D87290"/>
<defs>
<radialGradient id="paint0_radial_15_20141" cx="0" cy="0" r="1" gradientUnits="userSpaceOnUse" gradientTransform="translate(56.5714 -15.5938) scale(161.2 161.2)">
<stop offset="0.0056" stop-color="#E7E5F0"/>
<stop offset="0.1686" stop-color="#E3E0EC"/>
<stop offset="0.3681" stop-color="#D7D1E2"/>
<stop offset="0.5868" stop-color="#C3B8D0"/>
<stop offset="0.8175" stop-color="#A896B7"/>
<stop offset="1" stop-color="#8E75A0"/>
</radialGradient>
<linearGradient id="paint1_linear_15_20141" x1="32.1799" y1="20.1434" x2="77.8228" y2="16.6275" gradientUnits="userSpaceOnUse">
<stop stop-color="#FF8777"/>
<stop offset="0.984" stop-color="#FFB880"/>
</linearGradient>
<linearGradient id="paint2_linear_15_20141" x1="1.51752" y1="22.1308" x2="50.9217" y2="18.3252" gradientUnits="userSpaceOnUse">
<stop offset="0.016" stop-color="#FFB880"/>
<stop offset="1" stop-color="#FF8777"/>
</linearGradient>
</defs>
</svg>
