<svg width="78" height="78" viewBox="0 0 78 78" fill="none" xmlns="http://www.w3.org/2000/svg">
<path opacity="0.05" d="M52.1713 0L50.6431 3.61042L52.023 7.01585L48.6178 8.39551L47.0894 12.0062L55.6336 8.54403L52.1713 0Z" fill="white"/>
<path opacity="0.45" d="M26.6211 77.089L28.1493 73.4784L26.7693 70.0732L30.1745 68.6933L31.703 65.0826L23.1587 68.545L26.6211 77.089Z" fill="white"/>
<path opacity="0.25" d="M77.9407 51.3197L74.3301 49.7913L70.9246 51.1714L69.545 47.766L65.9343 46.2378L69.3965 54.7819L77.9407 51.3197Z" fill="white"/>
<path opacity="0.7" d="M0.851807 25.7693L4.46223 27.2974L7.86763 25.9176L9.24732 29.3229L12.858 30.8512L9.39561 22.3071L0.851807 25.7693Z" fill="white"/>
<path opacity="0.15" d="M75.6846 20.3229L72.0509 21.7953L70.6186 25.1789L67.2352 23.7468L63.6013 25.2193L72.091 28.8123L75.6846 20.3229Z" fill="white"/>
<path opacity="0.55" d="M3.10767 56.7663L6.74132 55.2939L8.17343 51.91L11.5573 53.3422L15.1907 51.8697L6.70123 48.2764L3.10767 56.7663Z" fill="white"/>
<path opacity="0.35" d="M57.6176 74.8329L56.1452 71.1995L52.7618 69.7671L54.1939 66.3835L52.7215 62.7499L49.1282 71.2398L57.6176 74.8329Z" fill="white"/>
<path opacity="0.9" d="M21.1748 2.2561L22.647 5.88978L26.0309 7.32187L24.5985 10.7055L26.0709 14.3389L29.6643 5.84944L21.1748 2.2561Z" fill="white"/>
</svg>
